<svg xmlns="http://www.w3.org/2000/svg" height="500" width="500" fill="none" stroke="#130b7a" stroke-linecap="round" stroke-linejoin="round" stroke-miterlimit="2.6131" stroke-width="10" xmlns:v="https://vecta.io/nano"><path d="M25 386.911h391.464v30.121m0 0c0 7.129-5.825 12.936-12.917 12.936m0 0H35.337m0 0c-5.685 0-10.337-4.662-10.337-10.347"/><path d="M25 419.621v-32.71m121.629-205.145H59.633"/><path d="M59.633 181.766c-6.369 0-11.575 5.206-11.575 11.557m0-.001v193.589h345.348v-71.237"/><path d="M282.104 181.766h-78.431m180.39 0h-69.708m79.051 97.426v-63.835M44.005 408.439h126.864m182.294 2.73a2.74 2.74 0 0 0 2.73-2.729 2.72 2.72 0 0 0-2.73-2.729c-1.51 0-2.748 1.21-2.748 2.729 0 1.491 1.238 2.729 2.748 2.729m20.497 0a2.75 2.75 0 0 0 2.749-2.729 2.73 2.73 0 0 0-2.749-2.729 2.72 2.72 0 0 0-2.721 2.729c0 1.491 1.22 2.729 2.721 2.729m18.809 0c1.51 0 2.748-1.238 2.748-2.729 0-1.52-1.238-2.729-2.748-2.729-1.492 0-2.73 1.21-2.73 2.729a2.75 2.75 0 0 0 2.73 2.729m-63.977-129.35c0 25.188-20.422 45.618-45.6 45.618s-45.59-20.431-45.59-45.618c0-25.168 20.412-45.6 45.59-45.6s45.6 20.432 45.6 45.6M314.6 101.729c0 17.514-14.202 31.688-31.707 31.688-17.514 0-31.688-14.174-31.688-31.688s14.174-31.697 31.688-31.697c17.504 0 31.707 14.183 31.707 31.697M475 281.819c0 17.514-14.193 31.707-31.707 31.707s-31.697-14.193-31.697-31.707c0-17.495 14.184-31.688 31.697-31.688S475 264.324 475 281.819m-29.54-137.736a21.27 21.27 0 0 1-21.266 21.266c-11.764 0-21.304-9.53-21.304-21.266 0-11.764 9.54-21.285 21.304-21.285 11.754 0 21.266 9.521 21.266 21.285m-324.722-4.896a21.29 21.29 0 0 1-21.284 21.284c-11.764 0-21.266-9.521-21.266-21.284 0-11.745 9.502-21.285 21.266-21.285 11.744-.001 21.284 9.539 21.284 21.285"/><path d="M320.162 254.053l90.008-93.582m-127.277 74.37V134.205m45.599 147.614h83.104M115.514 153.633l129.172 101.161"/></svg>
