<svg width="24" height="24" viewBox="0 0 24 24" fill="none" xmlns="http://www.w3.org/2000/svg">
<path d="M0 12C0 5.38323 5.38323 0 12 0C18.6173 0 24 5.38323 24 12C24 18.6163 18.6163 24 12 24C5.38323 24 0 18.6163 0 12Z" fill="#999999"/>
<path d="M17.7727 11.1134C17.8641 11.0373 18 11.1085 18 11.2288V16.25C18 16.9007 17.4961 17.4286 16.875 17.4286H7.125C6.50391 17.4286 6 16.9007 6 16.25V11.2313C6 11.1085 6.13359 11.0397 6.22734 11.1158C6.75234 11.5431 7.44844 12.0857 9.83906 13.9051C10.3336 14.2833 11.168 15.0788 12 15.0739C12.8367 15.0813 13.6875 14.2685 14.1633 13.9051C16.5539 12.0857 17.2477 11.5406 17.7727 11.1134ZM12 14.2857C12.5438 14.2955 13.3266 13.5688 13.7203 13.2692C16.8305 10.9047 17.0672 10.6984 17.7844 10.1092C17.9203 9.99866 18 9.82679 18 9.64509V9.17857C18 8.5279 17.4961 8 16.875 8H7.125C6.50391 8 6 8.5279 6 9.17857V9.64509C6 9.82679 6.07969 9.99621 6.21563 10.1092C6.93281 10.696 7.16953 10.9047 10.2797 13.2692C10.6734 13.5688 11.4562 14.2955 12 14.2857Z" fill="white"/>
</svg>
