<?xml version="1.0" encoding="utf-8"?>
<!-- Generator: Adobe Illustrator 22.1.0, SVG Export Plug-In . SVG Version: 6.00 Build 0)  -->
<svg version="1.1" id="Слой_1" xmlns="http://www.w3.org/2000/svg" xmlns:xlink="http://www.w3.org/1999/xlink" x="0px" y="0px"
	 viewBox="0 0 2101.2 1480.7" enable-background="new 0 0 2101.2 1480.7" xml:space="preserve">
<g>
	<path fill="#547FF5" d="M1941.3,1460.6h-1816c-3.6,0-6.5-2.9-6.5-6.5s2.9-6.5,6.5-6.5h1816c3.6,0,6.5,2.9,6.5,6.5
		S1944.9,1460.6,1941.3,1460.6z"/>
</g>
<path fill="#FBF7DD" d="M1913.3,1343.1c0,24.5-2,48.4-5.9,71.8h-850.8c-3.9-23.3-5.9-47.3-5.9-71.8c0-238.2,193.1-431.3,431.3-431.3
	S1913.3,1104.9,1913.3,1343.1z"/>
<circle fill="#FBF7DD" cx="1346.4" cy="512.3" r="504.6"/>
<circle fill="#FBF7DD" cx="597.4" cy="712" r="436.7"/>
<path fill="#FBF7DD" d="M983,1323.4c0,31.3-2.9,61.8-8.6,91.4H16.6c-5.6-29.6-8.6-60.2-8.6-91.4c0-269.2,218.3-487.5,487.5-487.5
	S983,1054.2,983,1323.4z"/>
<g>
	<path fill="#1954B3" d="M1056.6,1422.9H884.4c-4.4,0-8-3.6-8-8s3.6-8,8-8h172.1c4.4,0,8,3.6,8,8S1061,1422.9,1056.6,1422.9z"/>
</g>
<path fill="#FD9181" d="M1936.7,1083.1h-46.8c-7.6,0-13.7-6.1-13.7-13.7v-46.8c0-7.6,6.1-13.7,13.7-13.7h46.8
	c7.6,0,13.7,6.1,13.7,13.7v46.8C1950.4,1076.9,1944.2,1083.1,1936.7,1083.1z"/>
<path fill="#FD616C" d="M314.7,629.2h-39.6c-7.6,0-13.7-6.1-13.7-13.7v-39.6c0-7.6,6.1-13.7,13.7-13.7h39.6
	c7.6,0,13.7,6.1,13.7,13.7v39.6C328.4,623.1,322.3,629.2,314.7,629.2z"/>
<circle fill="#FDC956" cx="634.3" cy="159.2" r="59.3"/>
<circle fill="#1954B3" cx="126.1" cy="913.5" r="25.1"/>
<g>
	<path fill="#E0D2C8" d="M1660.6,474.6c-6.8,0-12.4-4.4-14.1-10.9l-21.2-81.3c-0.6-2.4-2.5-3.1-3.3-3.3c-0.8-0.2-2.8-0.5-4.5,1.3
		l-57.8,60.9c-4.7,5-11.9,6-17.8,2.7c-5.9-3.4-8.7-10-6.9-16.6l22.3-81c0.7-2.4-0.6-4-1.2-4.5c-0.6-0.6-2.2-1.8-4.6-1.1l-80.6,23.8
		c-6.6,1.9-13.3-0.7-16.8-6.6c-3.5-5.9-2.5-13.1,2.3-17.9l59.8-59c1.8-1.7,1.4-3.7,1.2-4.5c-0.2-0.8-1-2.7-3.4-3.3l-81.7-19.6
		c-6.6-1.6-11.1-7.3-11.2-14.1c-0.1-6.8,4.3-12.6,10.9-14.3l81.3-21.2c2.4-0.6,3.1-2.5,3.3-3.3c0.2-0.8,0.5-2.8-1.3-4.5l-60.9-57.8
		c-5-4.7-6-11.9-2.7-17.8c3.4-5.9,10-8.7,16.6-6.9l81,22.3c2.4,0.7,4-0.6,4.5-1.2c0.6-0.6,1.8-2.2,1.1-4.6l-23.8-80.6
		c-1.9-6.5,0.7-13.3,6.6-16.8c5.9-3.5,13.1-2.5,17.9,2.3l59,59.8c1.7,1.8,3.7,1.4,4.5,1.2c0.8-0.2,2.7-1,3.3-3.4l19.6-81.7
		c1.6-6.6,7.3-11.1,14.1-11.2c6.8-0.1,12.6,4.3,14.3,10.9l21.2,81.3c0.6,2.4,2.5,3.1,3.3,3.3c0.8,0.2,2.8,0.5,4.5-1.3l57.8-60.9
		c4.7-5,11.9-6,17.8-2.7c5.9,3.4,8.7,10,6.9,16.6l-22.3,81c-0.7,2.4,0.6,4,1.2,4.5c0.6,0.6,2.2,1.8,4.6,1.1l80.6-23.8
		c6.6-1.9,13.3,0.7,16.8,6.6c3.5,5.9,2.5,13.1-2.3,17.9l-59.8,59c-1.8,1.7-1.4,3.7-1.2,4.5c0.2,0.8,1,2.7,3.4,3.3l81.7,19.6
		c6.6,1.6,11.1,7.3,11.2,14.1c0.1,6.8-4.3,12.6-10.9,14.3l-81.3,21.2c-2.4,0.6-3.1,2.5-3.3,3.3c-0.2,0.8-0.5,2.8,1.3,4.5l60.9,57.8
		c5,4.7,6,11.9,2.7,17.8c-3.4,5.9-10,8.7-16.6,6.9l-81-22.3c-2.4-0.7-4,0.6-4.5,1.2c-0.6,0.6-1.8,2.2-1.1,4.6l23.8,80.6
		c1.9,6.5-0.7,13.3-6.6,16.8c-5.9,3.5-13.1,2.5-17.9-2.3l-59-59.8c-1.7-1.8-3.8-1.4-4.5-1.2c-0.8,0.2-2.7,1-3.3,3.4l-19.6,81.7
		c-1.6,6.6-7.3,11.1-14.1,11.2C1660.7,474.6,1660.7,474.6,1660.6,474.6z M1620.8,368.9c1.2,0,2.5,0.2,3.7,0.5
		c5.2,1.3,9.1,5.3,10.5,10.5l21.2,81.3c0.8,3.2,3.6,3.5,4.5,3.5c0,0,0,0,0,0c0.8,0,3.7-0.3,4.5-3.5l19.6-81.7
		c1.3-5.2,5.1-9.2,10.3-10.7c5.2-1.4,10.6,0,14.3,3.8l59,59.8c2.4,2.4,4.9,1.2,5.6,0.7c0.7-0.4,3-2.1,2.1-5.3l-23.8-80.6
		c-1.5-5.2-0.2-10.6,3.6-14.4s9.1-5.3,14.3-3.9l81,22.3c3.2,0.9,4.8-1.4,5.3-2.2s1.6-3.3-0.8-5.6l-60.9-57.8
		c-3.9-3.7-5.4-9-4.1-14.3s5.3-9.1,10.5-10.5l81.3-21.2c3.2-0.8,3.5-3.7,3.5-4.5s-0.3-3.7-3.5-4.5l-81.7-19.6
		c-5.2-1.3-9.2-5.1-10.7-10.3c-1.4-5.2,0-10.6,3.8-14.3l59.8-59c2.4-2.4,1.2-4.9,0.7-5.6c-0.4-0.7-2.1-3-5.3-2.1l-80.6,23.8
		c-5.2,1.5-10.6,0.2-14.4-3.6s-5.3-9.1-3.9-14.3l22.3-81c0.9-3.2-1.4-4.8-2.2-5.3s-3.3-1.6-5.6,0.8l-57.8,60.9
		c-3.7,3.9-9,5.4-14.3,4.1c-5.2-1.3-9.1-5.3-10.5-10.5L1661,13.5c-0.8-3.2-3.6-3.5-4.5-3.5c0,0,0,0,0,0c-0.8,0-3.7,0.3-4.5,3.5
		l-19.6,81.7c-1.3,5.2-5.1,9.2-10.3,10.7c-5.2,1.4-10.6,0-14.3-3.8l-59-59.8c-2.4-2.4-4.9-1.2-5.7-0.7s-3,2.1-2.1,5.3l23.8,80.6
		c1.5,5.2,0.2,10.6-3.6,14.4c-3.8,3.8-9.1,5.3-14.3,3.9l-81-22.3c-3.2-0.9-4.8,1.4-5.3,2.2c-0.4,0.7-1.6,3.3,0.8,5.6l60.9,57.8
		c3.9,3.7,5.4,9,4.1,14.3c-1.3,5.2-5.3,9.1-10.5,10.5l-81.3,21.2c-3.2,0.8-3.5,3.7-3.5,4.5c0,0.8,0.3,3.7,3.5,4.5l81.7,19.6
		c5.2,1.3,9.2,5.1,10.7,10.3c1.4,5.2,0,10.6-3.8,14.3l-59.8,59c-2.4,2.4-1.2,4.9-0.7,5.6c0.4,0.7,2.1,3,5.3,2.1l80.6-23.8
		c5.2-1.5,10.6-0.2,14.4,3.6c3.8,3.8,5.3,9.1,3.9,14.3l-22.3,81c-0.9,3.2,1.4,4.8,2.2,5.3c0.7,0.4,3.3,1.6,5.6-0.8l57.8-60.9
		C1613.1,370.5,1616.8,368.9,1620.8,368.9z"/>
</g>
<path fill="#E2C7B5" d="M718.9,1353.5L629,1248.8c-4.2-4.9-12.3-3.3-14.2,2.9l-41.4,131.6c-2.6,8.3-14.5,7.5-16.1-1l-25.5-135.6
	c-1.2-6.4-9-9-13.8-4.6l-101.6,93.3c-6.4,5.8-16.3-0.7-13.5-8.9l45.7-130.2c2.2-6.2-3.3-12.3-9.6-10.9l-134.7,30
	c-8.4,1.9-13.8-8.8-7.2-14.4l104.7-89.9c4.9-4.2,3.3-12.3-2.9-14.2l-131.6-41.4c-8.3-2.6-7.5-14.5,1-16.1l135.6-25.5
	c6.4-1.2,9-9,4.6-13.8l-93.3-101.6c-5.8-6.4,0.7-16.3,8.9-13.5l130.2,45.7c6.2,2.2,12.3-3.3,10.9-9.6l-30-134.7
	c-1.9-8.4,8.8-13.8,14.4-7.2l89.9,104.7c4.2,4.9,12.3,3.3,14.2-2.9L595,749.6c2.6-8.3,14.5-7.5,16.1,1l25.5,135.6
	c1.2,6.4,9,9,13.8,4.6L752,797.4c6.4-5.8,16.3,0.7,13.5,8.9l-45.7,130.2c-2.2,6.2,3.3,12.3,9.6,10.9l134.7-30
	c8.4-1.9,13.8,8.8,7.2,14.4l-104.7,89.9c-4.9,4.2-3.3,12.3,2.9,14.2l131.6,41.4c8.3,2.6,7.5,14.5-1,16.1l-135.6,25.5
	c-6.4,1.2-9,9-4.6,13.8l93.3,101.6c5.8,6.4-0.7,16.3-8.9,13.5L714.2,1202c-6.2-2.2-12.3,3.3-10.9,9.6l30,134.7
	C735.2,1354.7,724.5,1360.1,718.9,1353.5z"/>
<path fill="#69A6FB" d="M187.1,1412.8c-30-33.7-52.3-74.2-64.5-117.7c-2.9-10.4-5.3-21.5-2.7-32c2.6-10.5,11.6-20.2,22.4-20.2
	c18.4,0.1,26.5,24.5,43.3,32.1c8.4-16.1,2-35.5-2.9-52.9c-14.5-50.8-15.7-105.2-3.6-156.6c2.4-10.2,6.2-21.4,15.6-26
	c14.9-7.4,31.3,6.6,40.9,20.1c25,35.2,41.1,76.8,46.2,119.7c3.2,26.8,2.2,53.9,3.8,80.8c0.2,3.3,0.6,6.9,3,9.2
	c3.8,3.5,10.4,1.3,13.2-3c2.8-4.3,3-9.8,3.2-14.9c1-25.1,6-50,14.6-73.6c2.9-8,10-17.4,17.7-13.9c4.3,2,5.9,7.1,7,11.7
	c18.9,80.1,5,167.5-38,237.7"/>
<g>
	<path fill="#547FF5" d="M254.3,1392.4c-1.2,0-2.3-0.9-2.5-2.1l-48.5-310.7c-0.2-1.4,0.7-2.6,2.1-2.9c1.4-0.2,2.6,0.7,2.9,2.1
		l48.5,310.7c0.2,1.4-0.7,2.6-2.1,2.9C254.5,1392.4,254.4,1392.4,254.3,1392.4z"/>
</g>
<g>
	<path fill="#547FF5" d="M291.3,1361.3c-0.3,0-0.7-0.1-1-0.2c-1.3-0.6-1.8-2.1-1.2-3.3l32-70.8c0.6-1.3,2-1.8,3.3-1.2
		c1.3,0.6,1.8,2.1,1.2,3.3l-32,70.8C293.2,1360.8,292.2,1361.3,291.3,1361.3z"/>
</g>
<g>
	<path fill="#547FF5" d="M206.4,1373.4c-0.8,0-1.6-0.4-2.1-1.2l-44.6-70.6c-0.7-1.2-0.4-2.7,0.8-3.4c1.2-0.7,2.7-0.4,3.4,0.8
		l44.6,70.6c0.7,1.2,0.4,2.7-0.8,3.4C207.3,1373.3,206.9,1373.4,206.4,1373.4z"/>
</g>
<g>
	<path fill="#1954B3" d="M2093.2,1422.9H8c-4.4,0-8-3.6-8-8s3.6-8,8-8h2085.2c4.4,0,8,3.6,8,8S2097.6,1422.9,2093.2,1422.9z"/>
</g>
<path fill="#69A6FB" d="M1237.1,525.5c9.5-57.4,19.9-117.1,54.2-164c8.5-11.7,26.1-22.7,35.7-11.9c3.5,4,4.3,9.6,4.5,14.8
	c0.7,15-1.6,30.2-6.8,44.3c22-53.9,64.9-98.9,117.7-123.4c10.2-4.7,23.4-8.2,31.5-0.5c3.9,3.7,5.5,9.2,6.5,14.5
	c5.3,28.3-3.1,58-18.1,82.6s-36.3,44.7-58.5,63.2c-7,5.8-14.3,11.7-18.4,19.8c-4.1,8.1-4.2,19,2.5,25.2c3.6,3.3,8.6,4.9,12.2,8.2
	c7.8,7.2,6.3,20.5-0.4,28.8s-16.8,12.6-26.5,16.7c-29.8,12.4-59.6,24.8-89.4,37.2"/>
<g>
	<path fill="#547FF5" d="M1313.3,486.8c-0.6,0-1.2-0.2-1.6-0.6c-1-0.9-1.2-2.5-0.2-3.5l129.9-149.4c0.9-1,2.5-1.2,3.5-0.2
		c1,0.9,1.2,2.5,0.2,3.5l-129.9,149.4C1314.7,486.5,1314,486.8,1313.3,486.8z"/>
</g>
<g>
	<path fill="#547FF5" d="M1287.3,486.8c-0.1,0-0.3,0-0.4,0c-1.4-0.2-2.3-1.5-2.1-2.9l15-92.4c0.2-1.4,1.5-2.3,2.9-2.1
		c1.4,0.2,2.3,1.5,2.1,2.9l-15,92.4C1289.6,485.9,1288.5,486.8,1287.3,486.8z"/>
</g>
<g>
	<g>
		<path fill="#114695" d="M785.2,434.2h-15c-3.9,0-7-3.1-7-7s3.1-7,7-7h15c3.9,0,7,3.1,7,7S789.1,434.2,785.2,434.2z"/>
	</g>
	<g>
		<path fill="#114695" d="M587.3,957.8c-3.9,0-7-3.1-7-7v-28.9c0-3.9,3.1-7,7-7s7,3.1,7,7v28.9C594.3,954.7,591.1,957.8,587.3,957.8
			z M587.3,900c-3.9,0-7-3.1-7-7v-28.9c0-3.9,3.1-7,7-7s7,3.1,7,7V893C594.3,896.9,591.1,900,587.3,900z M587.3,842.2
			c-3.9,0-7-3.1-7-7v-28.9c0-3.9,3.1-7,7-7s7,3.1,7,7v28.9C594.3,839.1,591.1,842.2,587.3,842.2z M587.3,784.4c-3.9,0-7-3.1-7-7
			v-28.9c0-3.9,3.1-7,7-7s7,3.1,7,7v28.9C594.3,781.3,591.1,784.4,587.3,784.4z M587.3,726.6c-3.9,0-7-3.1-7-7v-28.9
			c0-3.9,3.1-7,7-7s7,3.1,7,7v28.9C594.3,723.5,591.1,726.6,587.3,726.6z M587.3,668.8c-3.9,0-7-3.1-7-7v-28.9c0-3.9,3.1-7,7-7
			s7,3.1,7,7v28.9C594.3,665.7,591.1,668.8,587.3,668.8z M587.3,611c-3.9,0-7-3.1-7-7v-28.9c0-3.9,3.1-7,7-7s7,3.1,7,7V604
			C594.3,607.9,591.1,611,587.3,611z M587.3,553.2c-3.9,0-7-3.1-7-7v-28.9c0-3.9,3.1-7,7-7s7,3.1,7,7v28.9
			C594.3,550.1,591.1,553.2,587.3,553.2z M587.3,495.4c-3.9,0-7-3.1-7-7v-28.9c0-3.9,3.1-7,7-7s7,3.1,7,7v28.9
			C594.3,492.3,591.1,495.4,587.3,495.4z M598.4,441c-2,0-4-0.9-5.4-2.6c-2.4-3-2-7.4,1-9.8c6.7-5.4,15.1-8.4,23.7-8.4h8.1
			c3.9,0,7,3.1,7,7s-3.1,7-7,7h-8.1c-5.5,0-10.6,1.8-14.8,5.3C601.6,440.5,600,441,598.4,441z M741.3,434.2h-28.9c-3.9,0-7-3.1-7-7
			s3.1-7,7-7h28.9c3.9,0,7,3.1,7,7S745.2,434.2,741.3,434.2z M683.5,434.2h-28.9c-3.9,0-7-3.1-7-7s3.1-7,7-7h28.9c3.9,0,7,3.1,7,7
			S687.4,434.2,683.5,434.2z"/>
	</g>
	<g>
		<path fill="#114695" d="M587.3,1001.8c-3.9,0-7-3.1-7-7v-15c0-3.9,3.1-7,7-7s7,3.1,7,7v15C594.3,998.6,591.1,1001.8,587.3,1001.8z
			"/>
	</g>
</g>
<path fill="#DDB54D" d="M1341.9,780v606c0,11.5-9.3,20.9-20.9,20.9H970.5L1341.9,780z"/>
<path fill="#FDC956" d="M1341.9,480.9v317.2l-351.5,608.8H637.9c-11.5,0-20.9-9.3-20.9-20.9V480.9c0-11.5,9.3-20.9,20.9-20.9H1321
	C1332.5,460,1341.9,469.4,1341.9,480.9z"/>
<path fill="#FFFFFF" d="M1302.2,545.3v380.2l-249.9,437H676.6c-11,0-20-8.9-20-20V545.3c0-11,8.9-20,20-20h605.6
	C1293.3,525.3,1302.2,534.2,1302.2,545.3z"/>
<path fill="#CD7A7A" d="M1120.2,438.3v91.8c0,9.3-7.5,16.8-16.7,16.8h-98.9l73-125.4h25.9C1112.7,421.6,1120.2,429.1,1120.2,438.3z"
	/>
<path fill="#FD9181" d="M1042.5,421.6c-3.5-25.7-30.4-45.6-63-45.6s-59.6,20-63,45.6h-61c-9.3,0-16.8,7.5-16.8,16.8v91.8
	c0,9.3,7.5,16.8,16.8,16.8h160.9l72.4-125.4H1042.5z"/>
<path fill="#F2F5F4" d="M1302.2,898v444.5c0,11-8.9,20-20,20h-248.2L1302.2,898z"/>
<path fill="#F2F5F4" d="M999.2,425.4c0,10.9-8.9,19.8-19.8,19.8c-6.1,0-11.5-2.8-15.2-7.1c-0.4-2.4-1.3-11.2,4.1-20.1
	c4.9-7.9,12-11.1,14.4-12.1C992.4,407.9,999.2,416.2,999.2,425.4z"/>
<path fill="#D9E6EE" d="M982.8,405.9l-18.6,32.2c-2.9-3.4-4.6-7.9-4.6-12.7c0-10.9,8.9-19.8,19.8-19.8
	C980.6,405.6,981.7,405.7,982.8,405.9z"/>
<g>
	<path fill="#69A6FB" d="M792,739.5h-49.1c-8.1,0-14.6-6.6-14.6-14.6v-49.1c0-8.1,6.6-14.6,14.6-14.6H792c8.1,0,14.6,6.6,14.6,14.6
		v49.1C806.6,732.9,800.1,739.5,792,739.5z M742.9,666.3c-5.2,0-9.4,4.2-9.4,9.4v49.1c0,5.2,4.2,9.4,9.4,9.4H792
		c5.2,0,9.4-4.2,9.4-9.4v-49.1c0-5.2-4.2-9.4-9.4-9.4H742.9z"/>
</g>
<g>
	<path fill="#69A6FB" d="M792,893.7h-49.1c-8.1,0-14.6-6.6-14.6-14.6V830c0-8.1,6.6-14.6,14.6-14.6H792c8.1,0,14.6,6.6,14.6,14.6
		V879C806.6,887.1,800.1,893.7,792,893.7z M742.9,820.5c-5.2,0-9.4,4.2-9.4,9.4V879c0,5.2,4.2,9.4,9.4,9.4H792
		c5.2,0,9.4-4.2,9.4-9.4V830c0-5.2-4.2-9.4-9.4-9.4H742.9z"/>
</g>
<g>
	<path fill="#69A6FB" d="M792,1047.9h-49.1c-8.1,0-14.6-6.6-14.6-14.6v-49.1c0-8.1,6.6-14.6,14.6-14.6H792c8.1,0,14.6,6.6,14.6,14.6
		v49.1C806.6,1041.3,800.1,1047.9,792,1047.9z M742.9,974.7c-5.2,0-9.4,4.2-9.4,9.4v49.1c0,5.2,4.2,9.4,9.4,9.4H792
		c5.2,0,9.4-4.2,9.4-9.4v-49.1c0-5.2-4.2-9.4-9.4-9.4H742.9z"/>
</g>
<g>
	<path fill="#69A6FB" d="M792,1200.5h-49.1c-8.1,0-14.6-6.6-14.6-14.6v-49.1c0-8.1,6.6-14.6,14.6-14.6H792c8.1,0,14.6,6.6,14.6,14.6
		v49.1C806.6,1193.9,800.1,1200.5,792,1200.5z M742.9,1127.3c-5.2,0-9.4,4.2-9.4,9.4v49.1c0,5.2,4.2,9.4,9.4,9.4H792
		c5.2,0,9.4-4.2,9.4-9.4v-49.1c0-5.2-4.2-9.4-9.4-9.4H742.9z"/>
</g>
<g>
	<path fill="#1954B3" d="M1228,668.5H866.5c-2.6,0-4.8-2.1-4.8-4.8s2.1-4.8,4.8-4.8H1228c2.6,0,4.8,2.1,4.8,4.8
		S1230.7,668.5,1228,668.5z"/>
</g>
<g>
	<path fill="#547FF5" d="M1074,692.4H866.5c-1.7,0-3-1.4-3-3s1.4-3,3-3H1074c1.7,0,3,1.4,3,3S1075.7,692.4,1074,692.4z"/>
</g>
<g>
	<path fill="#547FF5" d="M1074,718.1H866.5c-1.7,0-3-1.4-3-3s1.4-3,3-3H1074c1.7,0,3,1.4,3,3S1075.7,718.1,1074,718.1z"/>
</g>
<g>
	<path fill="#547FF5" d="M1074,743.7H866.5c-1.7,0-3-1.4-3-3s1.4-3,3-3H1074c1.7,0,3,1.4,3,3S1075.7,743.7,1074,743.7z"/>
</g>
<g>
	<path fill="#547FF5" d="M1228,692.4h-94.3c-1.7,0-3-1.4-3-3s1.4-3,3-3h94.3c1.7,0,3,1.4,3,3S1229.7,692.4,1228,692.4z"/>
</g>
<g>
	<path fill="#547FF5" d="M1228,718.1h-94.3c-1.7,0-3-1.4-3-3s1.4-3,3-3h94.3c1.7,0,3,1.4,3,3S1229.7,718.1,1228,718.1z"/>
</g>
<g>
	<path fill="#1954B3" d="M1228,822.7H866.5c-2.6,0-4.8-2.1-4.8-4.8s2.1-4.8,4.8-4.8H1228c2.6,0,4.8,2.1,4.8,4.8
		S1230.7,822.7,1228,822.7z"/>
</g>
<g>
	<path fill="#547FF5" d="M1074,846.6H866.5c-1.7,0-3-1.4-3-3s1.4-3,3-3H1074c1.7,0,3,1.4,3,3S1075.7,846.6,1074,846.6z"/>
</g>
<g>
	<path fill="#547FF5" d="M1074,872.2H866.5c-1.7,0-3-1.4-3-3s1.4-3,3-3H1074c1.7,0,3,1.4,3,3S1075.7,872.2,1074,872.2z"/>
</g>
<g>
	<path fill="#547FF5" d="M1074,897.9H866.5c-1.7,0-3-1.4-3-3s1.4-3,3-3H1074c1.7,0,3,1.4,3,3S1075.7,897.9,1074,897.9z"/>
</g>
<g>
	<path fill="#547FF5" d="M1228,846.6h-94.3c-1.7,0-3-1.4-3-3s1.4-3,3-3h94.3c1.7,0,3,1.4,3,3S1229.7,846.6,1228,846.6z"/>
</g>
<g>
	<path fill="#547FF5" d="M1228,872.2h-94.3c-1.7,0-3-1.4-3-3s1.4-3,3-3h94.3c1.7,0,3,1.4,3,3S1229.7,872.2,1228,872.2z"/>
</g>
<g>
	<path fill="#1954B3" d="M1228,976.9H866.5c-2.6,0-4.8-2.1-4.8-4.8c0-2.6,2.1-4.8,4.8-4.8H1228c2.6,0,4.8,2.1,4.8,4.8
		C1232.8,974.7,1230.7,976.9,1228,976.9z"/>
</g>
<g>
	<path fill="#547FF5" d="M1074,1000.8H866.5c-1.7,0-3-1.4-3-3c0-1.7,1.4-3,3-3H1074c1.7,0,3,1.4,3,3
		C1077.1,999.4,1075.7,1000.8,1074,1000.8z"/>
</g>
<g>
	<path fill="#547FF5" d="M1074,1026.4H866.5c-1.7,0-3-1.4-3-3s1.4-3,3-3H1074c1.7,0,3,1.4,3,3S1075.7,1026.4,1074,1026.4z"/>
</g>
<g>
	<path fill="#547FF5" d="M1074,1052H866.5c-1.7,0-3-1.4-3-3s1.4-3,3-3H1074c1.7,0,3,1.4,3,3S1075.7,1052,1074,1052z"/>
</g>
<g>
	<path fill="#547FF5" d="M1228,1000.8h-94.3c-1.7,0-3-1.4-3-3c0-1.7,1.4-3,3-3h94.3c1.7,0,3,1.4,3,3
		C1231.1,999.4,1229.7,1000.8,1228,1000.8z"/>
</g>
<g>
	<path fill="#547FF5" d="M1228,1026.4h-94.3c-1.7,0-3-1.4-3-3s1.4-3,3-3h94.3c1.7,0,3,1.4,3,3S1229.7,1026.4,1228,1026.4z"/>
</g>
<g>
	<path fill="#1954B3" d="M1228,1131H866.5c-2.6,0-4.8-2.1-4.8-4.8c0-2.6,2.1-4.8,4.8-4.8H1228c2.6,0,4.8,2.1,4.8,4.8
		C1232.8,1128.9,1230.7,1131,1228,1131z"/>
</g>
<g>
	<path fill="#547FF5" d="M1074,1154.9H866.5c-1.7,0-3-1.4-3-3s1.4-3,3-3H1074c1.7,0,3,1.4,3,3S1075.7,1154.9,1074,1154.9z"/>
</g>
<g>
	<path fill="#547FF5" d="M1074,1180.6H866.5c-1.7,0-3-1.4-3-3s1.4-3,3-3H1074c1.7,0,3,1.4,3,3S1075.7,1180.6,1074,1180.6z"/>
</g>
<g>
	<path fill="#547FF5" d="M1074,1206.2H866.5c-1.7,0-3-1.4-3-3s1.4-3,3-3H1074c1.7,0,3,1.4,3,3S1075.7,1206.2,1074,1206.2z"/>
</g>
<g>
	<path fill="#547FF5" d="M1228,1154.9h-94.3c-1.7,0-3-1.4-3-3s1.4-3,3-3h94.3c1.7,0,3,1.4,3,3S1229.7,1154.9,1228,1154.9z"/>
</g>
<g>
	<path fill="#547FF5" d="M1228,1180.6h-94.3c-1.7,0-3-1.4-3-3s1.4-3,3-3h94.3c1.7,0,3,1.4,3,3S1229.7,1180.6,1228,1180.6z"/>
</g>
<g>
	<path fill="#FD616C" d="M744.5,701.4c1.9-0.1,3.2,3.7,4,5c1.6,2.7,3.1,5.4,4.7,8.1c3,5.1,6.1,10.2,9.1,15.3c2.4,4,6.2,0.2,6.7-2.9
		c2.5-15.8,7.6-31.1,15.4-45c3.8-6.8,8.2-13.4,13.1-19.4c5.3-6.5,12-11.7,17.3-18.1c1.8-2.2,2.4-5.1,1.5-7.9c-0.6-1.9-2.5-4.8-5-3.5
		c-7.3,3.9-13.4,11.6-18.6,17.9c-5.7,7-10.8,14.4-15.1,22.3c-8.6,15.7-14.3,33-16.4,50.8c2.2-1,4.4-1.9,6.7-2.9
		c-4.6-7-9.1-13.9-13.7-20.9c-2.4-3.6-7.3-11.2-11.5-5.1C741.5,696.7,741.7,701.5,744.5,701.4L744.5,701.4z"/>
</g>
<path fill="#CD7A7A" d="M1628,760.5c-60.9-3.4-109.8-10.7-169.4-23.3c-1.4-0.3-2.9-0.7-3.8-1.8c-1-1.2-0.9-3-0.7-4.6
	c3-30.4-3.1-61.3,5-90.8c4.5-16.1,10.4-33.1,23.8-43.1c8.7-6.5,19.7-9.2,30.3-11.3c20.7-4.1,42.7-6.5,62.3,1.4
	c8.2,3.3,15.7,8.4,22.5,14.1c3.5,2.9,6.8,6,10,9.3c17.6,18.3,29,42.4,32.1,67.6C1643.6,705.9,1634.5,733.3,1628,760.5"/>
<path fill="#E2C7B5" d="M1505.8,774.9c-6.6,12.3-13.3,24.6-19.5,37.2c-5.8,11.8-10.9,25.5-19.8,35.4c-4.3,4.9-7.7,5.1-13.4,2
	c-3.5-1.9-7-4.4-7.2-8.5c-0.1-3.8,3.1-9.1,4.4-12.5c2.4-6.1,5-12.2,7.7-18.3c5.4-12.3,11.3-24.3,17.1-36.4c3.4-7,6.7-14.1,10.2-21.1
	c2.8-5.6,5.3-13.5,10.2-17.6c12.4-10.3,26.3-0.2,22.8,14.2C1516.2,758.5,1511.1,767.2,1505.8,774.9z"/>
<g>
	<path fill="#E2C7B5" d="M1454,838.6c-0.2-0.1-0.4-0.2-0.7-0.3c-12.1-5.8-24.3-9.9-36.9-13.4c-2.6-0.7-5.3-1.4-8-2.1
		c-3.5-0.9-7-1.7-10.5-2.5c-5.4-1.2-10.9-2.5-16.3-3.6c-2.4-0.5-7.9-2.6-10.4-1.8c-0.3,0.1-0.5,0.2-0.8,0.3
		c-4.8,2.2-1.4,7.8,2.2,11.6c1.4,1.5,2.8,2.7,3.8,3.4c7.7,5,15.8,9.3,24.2,12.8l0,0c1.4,0.6,2.8,1.2,4.2,1.7c0.1,0,0.2,0.1,0.3,0.1
		c0.8,0.3,1.6,0.6,2.3,0.9c0,0,0,0,0.1,0c0.1,0,0.2,0.1,0.3,0.1c10,3.7,20.4,6.6,30.9,9c1.9,0.4,3.5,0.8,5,0.9
		c4,0.5,6.6-0.3,10.9-4.2C1461.3,845.4,1462.1,842.6,1454,838.6z"/>
	<path fill="#E2C7B5" d="M1373.7,820.3c1.1,8.3-2,6.9-9.3,8.9c-4.9,1.4-9.5,2.8-14.7,3c-11.2,0.5-24.9,0-35.5-2.8
		c-5.1-1.3-28.5-14.7-24.3-22.9c2-4,14.7,0.5,18.9,1.6c7.6,1.9,14.6,3,22.4,1.6c-0.9-6.1-19.4-7.3-18.2-14.5
		c1.4-8.3,18.8,4.6,22.3,6.1c7.1,3,14.1,6.4,21.5,8.8C1361.8,811.9,1372.8,813.5,1373.7,820.3z"/>
</g>
<path fill="#D9E6EE" d="M1523,739.6c-11.8,17.8-17.7,38.7-25.9,58.2c-0.6,1.4-1.2,2.9-1.9,4.3c-0.5,1-0.9,2-1.4,3
	c-0.4,0.8-0.8,1.6-1.2,2.5c-1.4,2.8-2.8,5.5-4.4,8.1c-1.3,2.3-2.7,4.7-4.2,7c-1.7,2.7-3.4,5.4-5.1,8.1c-1,1.5-2,3-2.9,4.6
	c-7.7,11.9-14.4,24.7-22.5,36.3c-3.1,4.4-5.9,8.9-11.8,8.4c-5.7-0.5-11.3-5.4-15.4-9.1c-11.1-10.1,2.1-20.5,9.1-29.6
	c17.4-22.9,28.3-51.8,40.8-77.6c2.9-6,5.3-12.9,8.5-18.9c3.3-6.3,7.6-11.7,14.5-14.5c0.1-0.1,0.2-0.1,0.4-0.2
	C1507.2,727.3,1530.4,728.5,1523,739.6z"/>
<path fill="#114695" d="M1819.9,1374.4c-22.1,25.6-48.9,40.1-65.8,47.4c-9.5,4.1-20.5,1-26.5-7.4l-86.2-119.1l66.1-105.3l113.6,157
	C1827.1,1355.3,1826.6,1366.6,1819.9,1374.4z"/>
<path fill="#FD616C" d="M1215.2,575.3c-3.3,7.3-24.6,22-31,22.5l-9.1-36.3c-1.2-4.9,4.2-8.9,8.5-6.1L1215.2,575.3z"/>
<path fill="#F2E4BD" d="M1302.6,630.4c-6.5,9.2-19.1,25-39.6,40.2c-7.1,5.3-14.1,9.6-20.6,13.2c-13.8,7.7-25.7,11.9-33.2,14.2
	c-6.3-25-12.5-50-18.8-75.1l-6.3-25.2c6.5-0.5,27.7-15.1,31-22.5l21.9,13.8l50.5,31.8l-49.8,71.6c5.8-3.4,17.3-17.9,22.8-21.9"/>
<path fill="#EAD08F" d="M1302.6,630.4c-12.1,15.4-17.3,40-33,51.4c-5.5,4-20.1-3.4-25.9,0l37.5-64.9L1302.6,630.4z"/>
<path fill="#1954B3" d="M1721.9,1209.9l-63.1,109.3l-185.3-256l-250.2-345.6l-13.9-19.2c12-4.4,23.5-9.8,34.4-16.2h0
	c5.8-3.4,11.5-7.1,17-11.1c15.7-11.4,29.8-24.9,42-40.3l264.1,364.8L1721.9,1209.9z"/>
<path fill="#E2C7B5" d="M1588.8,891.3l0.4,0C1588.4,899,1588.3,897.7,1588.8,891.3z"/>
<path fill="#E2C7B5" d="M1597.3,812.2c-1.9,10.1-3.9,28.4-5.6,45.3c-0.1,1.3-0.2,2.6-0.4,3.9c-0.1,0.7-0.1,1.4-0.2,2
	c-1.1,11.6-1.9,21.9-2.4,27.9l-48.9-0.9h0l-48.3-2c0,0,2-9.5,3.5-20.5c0.2-1.5,0.4-3.1,0.5-4.7c0.1-0.8,0.2-1.6,0.2-2.6
	c0.1-1.1,0.1-2.2,0.2-3.5c0-0.6,0-1.3,0.1-2c0-1.3,0.1-2.6,0.1-3.9c0.1-10.2-0.3-22.1-0.9-25.6c-0.7-4.2-3.5-7.6-6.3-13.3
	c-0.5-1.1-1.1-2.3-1.6-3.5c-3.2-7.8-1.1-64.1,2-64.8c2.3-0.5-1.2-8.3,1.4-9.1c9.5-2.8,20.9-6.9,30.7-10.7c1.1-0.4,2.2-0.8,3.3-1.2
	c0.7-0.3,1.3-0.5,2-0.8c1.9-0.7,3.7-1.5,5.4-2.1c7.4-3,12.6-5.1,13-5.3v0c0,0,0,0,0,0v0c0.5,0.3,8.8,4.5,19.6,9.5
	c1.4,0.7,2.8,1.3,4.2,1.9c0.1,0,0.2,0.1,0.3,0.2c1.8,0.8,3.5,1.6,5.4,2.4c7.8,3.5,15.9,6.9,22.8,9.4c2.7,1,5.3,1.8,7.5,2.4
	C1617.8,744.2,1604.6,772.6,1597.3,812.2z"/>
<rect x="1533.9" y="692.5" fill="#E2C7B5" width="36" height="44.8"/>
<path fill="#E2C7B5" d="M1588.5,889.9l-0.4,0c-15.8,0-32.4-2.5-48.2-1.5c0,0-0.1,0-0.1,0c0,0-0.1,0-0.1,0c-15.7-2-32.4-0.5-48.2-1.5
	l-0.4,0c-19.9,30.7-24.3,57.7-24.7,97.4c22.1-2.7,45.2,7.5,65.8,17.9c1.4,0.7,2.8,0.5,4.3-0.3c1.4,0.8,2.8,1.1,4.2,0.5
	c21.2-9.1,44.8-17.9,66.7-13.9C1608.9,954.9,1602.6,914.9,1588.5,889.9z"/>
<path fill="#E2C7B5" d="M1489.5,942.8c-30,25.3-32.6,70.1-32.5,106.4c0.1,20.8,0.2,41.1-1.9,61.8c-1,9.9-2.3,19.8-3.5,29.7
	c-0.7,6.1-3.8,16.5-0.8,22.4c2,4,6.5,5.1,10.5,6.3c5.3,1.6,16.3,6.9,21.4,3.5c3.3-2.2,4.7-8.4,6.1-12c2.6-6.8,5.1-13.7,7.6-20.6
	c13-36.7,24.4-73.9,34.4-111.6c5-19.1,14.1-42.7,6.5-62.3C1530.8,950.3,1507.1,931.3,1489.5,942.8z"/>
<g>
	<path fill="#E2C7B5" d="M1489.9,1158.6c0,19-2.8,38-3.7,56.6c-1,20.7-4.6,40.7-9.2,60.5c-3.2,13.7-6.7,26.7-10,40
		c-1,4-2,8.1-2.9,12.3c-1,4.3-1.9,8.6-2.7,12.9c-0.2,0.9-0.3,1.7-0.4,2.6c0,0.1,0,0.2,0,0.3c-0.1,0.9-0.3,1.8-0.4,2.7
		c-0.3,2.5-0.7,5-0.9,7.5c-0.4,3.9-0.2,9.6-0.9,13c-0.4,2-0.7,3.7-0.9,4.3c-0.2,0.7-0.9-1-1.8-0.4c-1.7,1.1-5.2,0.4-7.5,0.5
		c-3.5,0-8.5,0.5-11.1-1.6c-2.6-2.2-0.6-4.4-0.6-7.3c0.2-6.1-0.4-13-0.4-19.3c0-0.4,0-0.9,0-1.3c0-0.9,0.1-1.8,0.2-2.6
		c0-0.4,0.1-0.9,0.1-1.2c0-0.3,0-0.3,0-0.5c0-0.6,0.1-1.1,0.2-1.7c0.5-7.2,0.9-14,1.2-20.8c0.3-8.4,0.3-16.8-0.1-26
		c-1.4-33.4,0.2-67.7,4-101.9c1.8-16.4,3.7-38.6,19.9-48.7C1478.6,1128.2,1489.8,1142,1489.9,1158.6z"/>
</g>
<path fill="#E2C7B5" d="M1455.6,1402.1c1.7-6.5,0.5-13.3,2.1-19.8c1-3.9,3.1-9,3.4-13c0.6-7.1-0.1-7.7-5.9-10.6
	c-13.9-6.9-19.3,4.7-27.2,13.9c-7.4,8.7-13.8,14-23.8,19.8c-8.5,4.9-20.9,9.6-24.9,19.3c-5.8,14.1,7.7,14.7,19,14.6
	c11-0.1,21.6-1.4,30.8-6.9c4.8-2.9,9.1-6.7,13.9-9.4C1446.7,1408,1454.4,1406.7,1455.6,1402.1z"/>
<path fill="#E2C7B5" d="M1596.3,958.9c20.6,33.4,9.1,76.8-2.4,111.3c-6.6,19.7-13.1,39-17.5,59.3c-2.1,9.8-4,19.6-6,29.4
	c-1.2,6-1.5,16.9-6.2,21.6c-3.2,3.2-7.7,2.8-11.9,2.7c-5.5-0.2-17.6,1.4-21.4-3.4c-2.5-3.2-1.8-9.5-2-13.3
	c-0.4-7.3-0.6-14.6-0.7-21.9c-0.9-39-0.1-77.9,2.3-116.8c1.2-19.7-0.1-45,13.3-61.2C1554.7,953.2,1583.2,942.5,1596.3,958.9z"/>
<path fill="#E2C7B5" d="M1583,1323.2c-0.4,1.9-0.7,3.8-0.9,5.7c-1.1,7.6-1.3,15.4-1.6,23.1c0,1.4-0.1,2.7-0.1,4.1
	c0,1.2-0.1,2.3-0.2,3.4c-0.2,4.9-0.5,9.8-1.2,14.7c-0.2,1.6,0.6,13.5,0.1,14.2c-1.3,1.8-9.7,1.2-11.3,1.1c-2.6-0.2-9.6-0.5-11.1-2.8
	c-1.1-1.6,0-7.2-0.1-9c-0.1-5.7-0.3-11.4-0.6-17.1c-0.1-1.1-0.1-2.3-0.2-3.4c0-0.3,0-0.7-0.1-1c-0.1-1-0.1-2-0.2-3
	c-0.6-8.4-1.4-16.8-2.3-25.1c-2.3-20.3-5.4-40.4-8.8-60.7c-3.1-19.2-6.3-38.4-9.5-57.5c-2.4-14.3-9.1-31.3-3.3-45.5
	c6.3-15.3,22.3-15.2,32.5-3.5c10.4,11.9,14.3,32.5,17.4,47.5C1589.5,1246.4,1590.4,1285.2,1583,1323.2z"/>
<g>
	<path fill="#E2C7B5" d="M1538.7,1445.2c1-11.9,6.3-23.9,9.7-36c2.5-8.6,3-22.9,9.1-29.9c6.6-7.5,17.3-6.4,22.5,1.5
		c3.3,4.9,1.1,13.5,2,18.3c2.2,11.4,4.7,13.2-0.7,24c-4.7,9.5-3.9,18.5-9.7,29.1C1559.4,1474.5,1535.8,1480.6,1538.7,1445.2z"/>
</g>
<path fill="#E2C7B5" d="M1578.8,772.2c-6.3,12.5-12.7,25-19.5,37.2c-6.4,11.5-14.7,23.5-17.8,36.4c-1.5,6.3,0.1,9.2,6,12.2
	c3.5,1.8,7.6,3.3,11.1,1.1c3.2-2,5.8-7.7,7.8-10.8c3.7-5.5,7.2-11.1,10.6-16.7c7-11.4,13.6-23.1,20.2-34.8
	c3.9-6.8,7.7-13.6,11.5-20.4c3-5.5,8.1-12,8.6-18.4c1.4-16-14.8-21.7-24.7-10.7C1586.3,754.2,1582.1,763.4,1578.8,772.2z"/>
<path opacity="0.1" fill="#29110D" d="M1569.9,702.3v5.6c-4.1,0.6-8.2,0.9-12.4,1c-0.4,0-0.7,0-1.1,0c-6,0-12.1-0.6-18.1-1.8
	c-1.5-0.3-3-0.6-4.5-1v-8.1c1.3,0.3,3.1,2.3,4.4,2.5c6.1,1.2,11.6,3,17.6,3C1560.6,703.5,1565.3,703.1,1569.9,702.3z"/>
<path fill="#E2C7B5" d="M1638.7,645.9c-4.5,14.6-12.8,27-23.4,36.5c-1.8,1.6-3.6,3.1-5.5,4.5c-0.7,0.6-1.5,1.1-2.2,1.6
	c-12.6,8.9-27.7,14.4-43.6,15.5c-4.7,0.3-9.4,0.3-14.1-0.2c-5.9-0.6-11.9-1.7-17.7-3.6c-1.3-0.4-2.6-0.8-3.8-1.3
	c-4.5-1.6-8.8-3.6-12.8-5.8c-14.9-8.2-26.6-20.5-34.2-34.7c-0.5-0.9-1-1.9-1.4-2.8c-8.9-18.3-11.1-39.7-4.7-60.4
	c4.1-13.1,11.2-24.5,20.3-33.6c21.5-21.5,54.5-30.6,86.2-20.8C1626.8,554.8,1652.3,601.8,1638.7,645.9z"/>
<path fill="#AB7A7A" d="M1520.5,593.5c-0.5,0-1,0-1.5,0l-0.5,0c-0.6,0-1.2,0-1.8-0.1c-0.2,0-0.3-0.1-0.5-0.1l-1.4-0.2
	c-1.8-0.2-3.7-0.2-5.5-0.1c-1.9,0.1-3.7,0.4-5.6,0.7c-0.6,0.1-1.1,0.2-1.7,0.3c-0.7,0.1-1.5,0.2-2.3,0.1c-0.3,0-0.7-0.1-1-0.1
	c-0.2,0-0.3-0.3-0.1-0.5c0.3-0.2,0.6-0.3,0.9-0.5c0.7-0.4,1.5-0.6,2.3-0.8c0.5-0.1,1.1-0.2,1.6-0.3c1.9-0.3,3.8-0.6,5.7-0.7
	c1.9-0.1,3.9-0.1,5.8,0.1l1.5,0.2l0.1,0c0.9,0.2,1.9,0.5,2.7,1l0,0c0,0,0,0,0,0C1519.7,592.9,1520.1,593.1,1520.5,593.5z"/>
<path fill="#AB7A7A" d="M1526.7,645.4c-0.1,0.4-0.2,0.7-0.3,1.1c0,0.3-0.1,0.7,0.1,0.9c0.1,0.2,0.3,0.4,0.6,0.5
	c0.3,0.1,0.6,0.3,0.9,0.4c1.3,0.4,2.8,0.8,4.2,1.3c1.4,0.5,2.8,1,4.1,1.3c0.7,0.2,1.3,0.3,1.8,0.1c0.2-0.1,0.4-0.4,0.5-0.7
	c0.1-0.3,0.2-0.7,0.3-1.1c0.1,0.4,0.2,0.7,0.1,1.1c0,0.4-0.1,0.9-0.4,1.2c-0.4,0.4-0.8,0.5-1.3,0.6c-0.2,0-0.4,0-0.6,0.1
	c-0.2,0-0.4,0-0.6,0c-1.6-0.1-3-0.6-4.4-1c-1.4-0.5-2.8-0.9-4.2-1.7c-0.3-0.2-0.7-0.4-1-0.7c-0.3-0.3-0.6-0.7-0.7-1.2
	c-0.1-0.5,0.1-0.9,0.3-1.3c0.1-0.2,0.2-0.3,0.3-0.5C1526.5,645.7,1526.6,645.5,1526.7,645.4z"/>
<path fill="#AB7A7A" d="M1592.5,606.7c0.5-0.1,1-0.1,1.5-0.1c0,0,0,0,0,0c0,0,0,0,0,0c1,0,1.9,0.2,2.8,0.6l0.1,0l1.3,0.6
	c1.8,0.8,3.4,1.8,5,2.9c1.6,1.1,3.1,2.3,4.6,3.5c0.4,0.4,0.8,0.7,1.3,1.1c0.6,0.5,1.1,1.2,1.6,1.9c0.2,0.3,0.3,0.6,0.5,0.8
	c0.1,0.2-0.1,0.4-0.3,0.3c-0.3-0.1-0.6-0.3-0.9-0.5c-0.7-0.3-1.3-0.8-1.9-1.3c-0.4-0.4-0.9-0.8-1.3-1.1c-1.4-1.2-2.9-2.4-4.4-3.4
	c-1.5-1.1-3.1-2-4.8-2.8l-1.3-0.6c-0.1-0.1-0.3-0.1-0.4-0.2c-0.6-0.2-1.1-0.5-1.7-0.8l-0.4-0.3
	C1593.3,607.2,1592.9,607,1592.5,606.7z"/>
<path fill="#AB7A7A" d="M1554.8,668.4c-0.8,0.6-1.8,1-2.7,1.3c-0.4,0.2-0.9,0.3-1.4,0.4c-1.5,0.3-2.9,0.4-4.4,0.5
	c-3.4,0.1-6.7,0.1-10.1-0.3c-3.4-0.5-6.6-1.3-9.8-2.4c-1.3-0.5-2.7-1-4-1.6c-0.5-0.2-0.9-0.5-1.4-0.8c-0.8-0.6-1.6-1.3-2.4-2
	c-0.2-0.2,0-0.5,0.3-0.4c1,0.4,2,0.8,3,1.1c0.4,0.1,0.7,0.3,1.1,0.4c1.3,0.6,2.6,1.1,4,1.6c3.1,1.1,6.3,1.9,9.5,2.3
	c3.2,0.4,6.5,0.5,9.8,0.3c1.5-0.1,3-0.2,4.5-0.4c0.3,0,0.5-0.1,0.8-0.1c1.1-0.1,2.2-0.2,3.2-0.4
	C1554.9,667.9,1555,668.3,1554.8,668.4z"/>
<circle fill="#E0A39A" cx="1493.1" cy="629.5" r="8"/>
<circle fill="#E0A39A" cx="1593.8" cy="663.3" r="8"/>
<path fill="#AB7A7A" d="M1578.2,644.8c1.3,0,2.6,0.2,3.8,0.4c1.3,0.2,2.5,0.5,3.7,0.9c1.2,0.4,2.4,0.7,3.6,1.3
	c1.2,0.5,2.3,1.3,3.1,2.3c-1.1-0.7-2.3-1.1-3.4-1.5c-1.2-0.4-2.4-0.7-3.6-1c-1.2-0.4-2.4-0.7-3.6-1.1
	C1580.6,645.7,1579.4,645.3,1578.2,644.8z"/>
<path fill="#AB7A7A" d="M1513.9,624.8c-1.3-0.3-2.5-0.6-3.7-1c-1.2-0.4-2.4-0.7-3.6-1.1c-1.2-0.4-2.4-0.8-3.6-1.2
	c-1.2-0.4-2.4-0.6-3.7-0.7c1.2-0.4,2.6-0.3,3.9-0.1c1.3,0.2,2.5,0.6,3.7,1c1.2,0.4,2.4,0.9,3.6,1.4
	C1511.7,623.6,1512.8,624.1,1513.9,624.8z"/>
<circle fill="#547FF5" cx="1506.6" cy="611.9" r="9.4"/>
<g>
	<circle fill="#D9E6EE" cx="1505.6" cy="609.7" r="3.9"/>
	<path fill="#547FF5" d="M1505.6,614.2c-0.5,0-0.9-0.1-1.3-0.2c-1.2-0.4-2.1-1.1-2.7-2.2c-0.6-1.1-0.7-2.3-0.3-3.5
		c0.4-1.2,1.1-2.1,2.2-2.7c1.1-0.6,2.3-0.7,3.5-0.3c2.4,0.7,3.7,3.3,3,5.7c-0.4,1.2-1.1,2.1-2.2,2.7
		C1507,614.1,1506.3,614.2,1505.6,614.2z M1505.6,606.4c-0.5,0-1.1,0.1-1.6,0.4c-0.8,0.4-1.4,1.1-1.6,2c-0.3,0.9-0.2,1.8,0.2,2.5
		s1.1,1.4,2,1.6c0.9,0.3,1.8,0.2,2.5-0.2s1.4-1.1,1.6-2l0,0c0.5-1.8-0.4-3.6-2.2-4.2C1506.2,606.4,1505.9,606.4,1505.6,606.4z"/>
</g>
<circle fill="#547FF5" cx="1584" cy="636.5" r="9.4"/>
<g>
	<circle fill="#D9E6EE" cx="1583" cy="634.3" r="3.9"/>
	<path fill="#547FF5" d="M1583,638.8c-0.5,0-0.9-0.1-1.3-0.2c-1.2-0.4-2.1-1.1-2.7-2.2c-0.6-1.1-0.7-2.3-0.3-3.5
		c0.4-1.2,1.1-2.1,2.2-2.7c1.1-0.6,2.3-0.7,3.5-0.3c1.2,0.4,2.1,1.1,2.7,2.2c0.6,1.1,0.7,2.3,0.3,3.5c-0.4,1.2-1.1,2.1-2.2,2.7
		C1584.5,638.6,1583.7,638.8,1583,638.8z M1583,630.9c-0.5,0-1.1,0.1-1.6,0.4c-0.8,0.4-1.4,1.1-1.6,2s-0.2,1.8,0.2,2.5
		c0.4,0.8,1.1,1.4,2,1.6c0.9,0.3,1.8,0.2,2.5-0.2c0.8-0.4,1.4-1.1,1.6-2l0,0c0.3-0.9,0.2-1.8-0.2-2.5c-0.4-0.8-1.1-1.4-2-1.6
		C1583.7,631,1583.3,630.9,1583,630.9z"/>
</g>
<path fill="#114695" d="M1571.2,635.7c0.5-1.5,1.3-2.9,2.2-4.3c0,0,0,0,0,0c1.4-1.4,3.1-2.6,4.9-3.4c1.8-0.9,3.8-1.4,5.8-1.6
	c0.5-0.1,1,0,1.5,0c0.5,0,1,0.1,1.5,0.1c1,0.1,1.9,0.3,2.9,0.5c1.9,0.5,3.7,1.1,5.5,1.9c0.9,0.4,1.8,0.8,2.6,1.3
	c0.4,0.2,0.8,0.5,1.3,0.7c0.4,0.2,0.8,0.5,1.2,0.7c1.6,0.9,3.2,1.6,4.9,1.9c0,0,0,0,0,0c1.3,0.6,2.8,0.9,4.3,1
	c0.3,0,0.3,0.4,0.1,0.5c-1.5,0.5-3.1,0.8-4.8,0.7c0,0,0,0-0.1,0c-2-0.4-3.8-1.2-5.5-2.2c-0.4-0.2-0.8-0.5-1.2-0.7
	c-0.4-0.2-0.8-0.5-1.2-0.7c-0.8-0.4-1.6-0.8-2.4-1.2c-1.7-0.7-3.4-1.3-5.1-1.8c-0.9-0.2-1.8-0.4-2.6-0.5c-0.4-0.1-0.9-0.1-1.3-0.1
	c-0.4,0-0.8,0-1.3,0c-1.7,0.1-3.4,0.6-5,1.3c-1.6,0.8-3,1.8-4.2,3c0,0,0,0,0,0c-1.2,0.8-2.4,1.8-3.4,2.9
	C1571.4,636.1,1571.1,635.9,1571.2,635.7z"/>
<path fill="#114695" d="M1521.2,620.3c-0.2-1.5-0.5-2.9-1-4.3c0,0,0,0,0,0c-0.2-1.7-0.8-3.3-1.5-4.8c-0.7-1.5-1.8-2.8-3-3.8
	c-0.3-0.3-0.6-0.5-0.9-0.7c-0.3-0.2-0.7-0.4-1-0.6c-0.7-0.4-1.5-0.7-2.2-1c-1.5-0.6-3.1-1-4.8-1.3c-0.8-0.2-1.6-0.3-2.5-0.3
	c-0.4,0-0.8-0.1-1.2-0.1c-0.4,0-0.9,0-1.3-0.1c-1.8-0.1-3.6-0.4-5.3-1.2c0,0,0,0,0,0c-1.3-0.8-2.4-1.9-3.2-3.2
	c-0.1-0.2,0.1-0.5,0.3-0.4c1.2,0.7,2.5,1.2,3.7,1.5c0,0,0,0,0,0c1.4,0.6,3,0.9,4.7,1c0.4,0,0.8,0,1.3,0.1c0.4,0,0.9,0,1.3,0.1
	c0.9,0.1,1.8,0.2,2.6,0.3c1.7,0.3,3.4,0.8,5.1,1.4c0.8,0.3,1.6,0.7,2.4,1.1c0.4,0.2,0.8,0.4,1.2,0.7c0.4,0.3,0.8,0.5,1.1,0.8
	c1.5,1.2,2.6,2.7,3.5,4.5c0.9,1.7,1.4,3.6,1.8,5.5c0,0,0,0,0,0.1c0,1.6-0.2,3.3-0.7,4.8C1521.6,620.6,1521.3,620.6,1521.2,620.3z"/>
<path fill="#547FF5" d="M1594.6,892.9c-1.2,0.1,0.3,0-1.4,0.1c-1.7,0.1-0.1,0.5-3.5,0.6c-15.8,0.5-34.1,0.8-50.6-0.6
	c-16.5-1.4-33.8-4.6-49.6-7.8c-2.5-0.5-2.4-0.6-3.8-0.9c-1.4-0.3-1-0.2-2.1-0.5c1-2.8,3-7.3,4.2-10c0.6-1.3,1.9-2,3.3-1.7
	c4.9,1,16.4,3.2,22.3,4.1c8.1,1.2,19.9,2.3,26,2.8c3,0.2,0.5,0,0.6,0c0.8,0.1,0.4,0,0.6,0.1c0.2,0,0.2,0,0.4,0c0.1,0,0,0,0,0
	c9,0.8,17.9,1.5,26.9,1.7c6.8,0.1,17.5-0.5,22-0.7c1,0,1.9,0.6,2.1,1.6C1592.7,884.5,1594,889.8,1594.6,892.9z"/>
<path opacity="0.1" fill="#29110D" d="M1461.9,1337.8c-0.2,1-0.4,2-0.6,3c-0.2,0.9-0.3,1.7-0.4,2.6c-0.2,0-0.4,0-0.6,0
	c-2.6,0-5.1-0.4-7.5-0.7c-2-0.3-3.9-0.6-5.6-0.6h-0.3c-0.9,0-1.7,0-2.6,0c-1,0-2,0.1-3,0.1c-1.2,0-3,0-4.8-0.4
	c0-0.9,0.1-1.8,0.2-2.6c0-0.4,0.1-0.9,0.1-1.2c0-0.3,0-0.3,0-0.5c0-0.5,0.1-0.8,0.1-1.2c3.2,0.7,6.9,0.2,10.3,0.2
	c4.7,0,9.8,1.6,14.4,1.2C1461.8,1337.8,1461.8,1337.8,1461.9,1337.8z"/>
<path fill="#547FF5" d="M1464.9,1336.7c-2.5,1.8-1.4,1.1-3,1.2c-0.1,0-0.2,0-0.3,0c-4.7,0.3-9.8-1.2-14.4-1.2
	c-3.4,0-7.1,0.4-10.3-0.2c-0.2,0-0.3-0.1-0.5-0.1c-0.9-0.2-1-0.3-1.5-0.8c-4-4.3-3-10.1-2.1-15.5c0-0.1,0-0.1,0-0.2
	c2.3,0.4,0.8,0.2,3.8,0.7c0.4,0.1,0.8,0.1,1.2,0.2c7.5,1.1,17,1.7,25.1,0.9c0.7-0.1,1.7-0.2,2.6-0.3c0.4,0,0.8-0.1,1.1-0.1
	c0,0,0,0.1,0.1,0.1C1468.5,1325.3,1467.5,1334.8,1464.9,1336.7z"/>
<path opacity="0.1" fill="#29110D" d="M1580.5,1350.6c0,0.5,0,1-0.1,1.5c0,1.4-0.1,2.7-0.1,4.1c-0.7,0.1-1.5,0.1-2.3,0.1
	c-1.6,0-3.3-0.1-4.8-0.3c-1-0.1-2-0.2-2.9-0.2c-0.2,0-0.5,0-0.7,0c-1.5,0-3.1,0.2-4.8,0.3c-1.9,0.2-3.9,0.4-6,0.4c-1,0-2,0-2.9-0.1
	c-0.1-1-0.1-2-0.2-3c-0.1-0.8-0.1-1.7-0.2-2.5c0.1,0,0.2,0,0.4,0c4.7,0.7,9.9-0.7,14.7-0.5C1573.8,1350.4,1577.4,1351,1580.5,1350.6
	z"/>
<path fill="#547FF5" d="M1582.7,1349.7c-0.5,0.5-0.7,0.6-1.6,0.8c-0.2,0-0.4,0.1-0.6,0.1c-3.1,0.4-6.7-0.2-10-0.3
	c-4.7-0.2-9.9,1.1-14.7,0.5c-0.1,0-0.3,0-0.4,0c-1.3-0.1-0.3,0.6-2.6-1.3c-2.4-2.1-2.7-11.7-0.8-15.6c0-0.1,0.1-0.2,0.1-0.2
	c0.5,0,1.1,0.2,1.7,0.3c0.6,0.1,1.2,0.3,1.7,0.3c8.3,1.3,18,1.2,25.7,0.4c0.3,0,0.6,0,0.9-0.1c3-0.3,1.4-0.2,3.7-0.5v0
	C1586.6,1339.6,1587,1345.6,1582.7,1349.7z"/>
<path fill="#69A6FB" d="M1588.7,1323.3c-1.3,4.8-1.6,7.7-2.9,11c-11.3,1.8-22.4,1.5-33.7-0.5c-18.1-63.2-27.9-108.6-33.3-142.1
	c-4.9-31-5.9-51.9-5.9-67.5c0,22-2.3,51.5-16.9,105.1v0c-6.8,24.9-16.3,55.1-29.4,92.1c-11.3,1.4-22.6,1-33.7-1.2
	c-1.5-3.5-1.8-5.7-2.4-11.1c-11-99.7-3.5-218.8,24.2-329.4c8.5-34,14.2-74.2,28.9-96.5c18.2,4.9,36.6,7.9,55.4,9.5
	c18.8,1.6,36.5,1.3,55.3-0.4c10.6,23.9,26.3,78.1,27.6,110.5C1625.1,1075.6,1609.4,1248,1588.7,1323.3z"/>
<path opacity="0.1" fill="#29110D" d="M1591.7,857.5c-0.1,1.3-0.2,2.6-0.4,3.9h0l-0.1,0c-1.6,0.4-3.3,0.8-5.3,1.1
	c-3.2,0.5-6.6,0.9-10.6,1.1c-1.4,0.1-2.8,0.2-4.2,0.2c-0.9,0-1.8,0.1-2.8,0.1c-3.3,0.1-6.7,0.2-10,0.2h-1.7
	c-5.5,0-11.4-0.2-17.3-0.5c-10.7-0.6-19.4-1.7-27.3-3.6c-1.5-0.4-3.1-0.8-4.9-1.4c-0.5-0.2-1-0.3-1.5-0.5c-0.9-0.3-1.9-0.6-3-1
	l-1.7-0.6c-1.1-0.4-2.2-0.7-3.3-1.1c-0.2-0.1-0.4-0.1-0.7-0.2c-0.3-0.1-0.7-0.2-1-0.3c0-1.3,0.1-2.6,0.1-3.9c0.9,0.5,2.1,0.7,3.1,1
	c1.1,0.3,2.2,0.7,3.3,1.1c0.2,0,0.3,0.1,0.5,0.2c1.4,0.5,2.8,0.9,4.2,1.4c0.5,0.2,0.9,0.3,1.4,0.4c1.5,0.5,3.1,0.9,4.6,1.3
	c8.6,2.1,17.6,3,26.4,3.5c5.7,0.3,11.4,0.5,17.1,0.5c3.9,0,7.7,0,11.5-0.2c0.9,0,1.8-0.1,2.7-0.1c1.4-0.1,2.8-0.1,4.1-0.2
	c3.4-0.2,6.7-0.5,10.1-1.1c1.6-0.3,3.3-0.6,4.8-1C1590.5,857.8,1591.1,857.7,1591.7,857.5z"/>
<path fill="#D9E6EE" d="M1612.4,758.6c-0.3,4-1.4,7.8-2.3,11.6c-2.1,8.4-4.4,16.8-6,25.3c-0.5,2.4-0.8,4.8-1.1,7.3
	c-0.6,4.8-0.9,9.5-1.4,14.3c-0.2,2.2-0.5,4.4-0.8,6.6c-1.5,10.4-2.7,21.1-5.7,31.2c-0.4,1.3-1.9,2-3.3,2.5c-0.6,0.2-1.2,0.4-1.7,0.5
	c-1.6,0.4-3.2,0.7-4.8,1c-3.3,0.6-6.7,0.9-10.1,1.1c-1.4,0.1-2.8,0.2-4.1,0.2c-0.9,0-1.8,0.1-2.7,0.1c-3.8,0.1-7.7,0.2-11.5,0.2
	c-5.7,0-11.4-0.2-17.1-0.5c-8.8-0.5-17.8-1.4-26.4-3.5c-1.6-0.4-3.1-0.8-4.6-1.3c-0.5-0.1-0.9-0.3-1.4-0.4c-1.4-0.4-2.8-0.9-4.2-1.4
	c-0.2-0.1-0.3-0.1-0.5-0.2c-1.1-0.4-2.2-0.7-3.3-1.1c-1-0.3-2.2-0.5-3.1-1c-0.2-0.1-0.4-0.2-0.6-0.4c-1.1-1-1-2.3-1-3.8
	c-0.1-2.1-0.2-4.1-0.4-6.2c-0.2-2.6-0.6-5.2-1-7.7c-0.4-2.4-0.9-4.7-1.5-7c-0.6-2.3-1.3-4.6-2.1-6.9c-0.4-1.1-0.9-2.2-1.4-3.3
	c-0.9-2.1-1.8-4.1-2.4-6.3c-0.5-2-1-4-1.4-6c-0.4-1.7-0.7-3.5-1-5.2c-0.2-1.1-0.4-2.2-0.5-3.2c-0.3-1.7-0.5-3.4-0.7-5.2
	c-1.4-11.9-1.1-24,0.8-35.8c0.5-3.1,1.1-6.1,1.8-9.2c0.2-0.8,0.3-1.6,0.5-2.3c0.4-1.7,0.5-3.5,1.3-5.1c2.6-5.5,9.9-7.9,11.8-8.2
	c3.6-0.5,7-1.4,10.5-2.4c1.7-0.4,3.3-0.9,5-1.4c2.3-0.7,8.6-2.8,11.8-3.8c0.6-0.2,1.3,0,1.6,0.4c0.2,0.2,0.4,0.5,0.4,0.9
	c0.8,8.1,8.4,39.5,47,5.9c0,0,0.1-0.1,0.1-0.1c0.1-0.1,0.9-1,2-1.2c0.7-0.1,1.4,0,2.2,0.4c3.5,1.6,7,3.3,10.6,4.8
	c2.6,1.1,5.3,2.2,8,3.3c0.5,0.2,0.9,0.4,1.4,0.5c0.1,0,0.1,0,0.2,0.1c3.1,1.2,6.1,2.4,9.2,3.6c1.1,0.4,1.9,0.8,2.5,1.4
	c0.5,0.6,0.8,1.3,0.7,2.5c-0.1,1.8,0,3.6,0.1,5.5C1612.1,752.6,1612.6,755.6,1612.4,758.6z"/>
<path fill="#CD7A7A" d="M1460.4,1373.7c-6.4,12.5-20,16.3-29.9,22.6c-0.8,0.5-1.8-0.1-1.7-1.1c0.9-6.4,1.2-19.2,0.9-19.8
	c-0.8-1.7-4.9-0.7-6.4,0.3c-15.8,10.7-25.5,14-39.2,27.1c-6.2,5.8-9,16.2-8,18c0.8,1.6,3,4.6,8.4,5.6c14,2.5,21.6,3.2,35-2
	c5.7-2.2,12.5-6.5,17.5-9.2c4.8-2.6,9.6-5.3,14.3-8.2c1.5-0.9,8.9-6.1,9.1-8.1C1461.2,1392.1,1460,1380.7,1460.4,1373.7"/>
<path fill="#CD7A7A" d="M1582.6,1400c-4.1,14.6-9.2,28.7-17.3,41.2c-0.9,1.3-2.6,1.4-3.5,0c-2.8-4.4-5.4-9.5-9.2-10.6
	c-2.3-0.7-6,1.3-8.7,4.1c-0.9,0.9-1.7,0.6-1.7-0.8l0-6.6c-8.2,10.6-12.8,26.3-9.9,39.7c0.8,3.8,1.7,6.3,3.2,9c1.7,3,4.7,4.8,8,4.5
	c5.5-0.5,10.3-2.2,15-6.4c6.1-5.6,10.9-12.8,15.6-19.8c3.7-5.5,6.4-11.7,8.2-18.2c3-10.8,8.6-23.2,2.6-33
	C1584.4,1402.5,1582.8,1399.2,1582.6,1400"/>
<path fill="#E2C7B5" d="M1559.5,854.1c-0.8,3-1.6,4.9-2.8,6.4c-1,1.3-2.3,2.2-4,3.1c-1.3,0.7-2.8,1.2-4.7,1.9
	c-10,3.8-20.3,7.1-30.7,9.5c-0.5,0.1-1,0.2-1.6,0.3c-1.9,0.4-3.9,0.8-5.8,1.2c0,0-0.1,0-0.1,0c-9,1.7-18.1,2.6-27.2,2.7
	c-1.2,0-3.1-0.2-5.1-0.7c-5.1-1.2-11.1-4-8.3-8.5c0.1-0.2,0.3-0.5,0.5-0.7c1.6-2,7.4-3.3,9.7-4.2c5.2-2.1,10.4-4.1,15.6-6
	c2.7-1,5.4-2,8.1-3c0.7-0.3,1.4-0.5,2.1-0.7c0.7-0.2,1.3-0.5,2-0.7c0.3-0.1,0.7-0.2,1-0.4c0.1,0,0.2-0.1,0.3-0.1
	c1.5-0.5,3-1,4.5-1.5c0,0,0,0,0,0c12.4-4.1,24.9-7.4,38.2-9.2c0.2,0,0.5-0.1,0.7-0.1C1561,842.4,1561.9,845.2,1559.5,854.1z"/>
<path fill="#E2C7B5" d="M1478.7,870c5.8,6,2.5,6.7-2.2,12.7c-3.1,4-6.1,7.9-10.1,11.1c-8.7,7-20.1,14.7-30.3,18.8
	c-4.9,2-31.7,4.9-33.1-4.1c-0.7-4.4,12.2-8.2,16.2-9.8c7.2-2.9,13.6-6.2,19-11.9c-4.3-4.3-20,5.6-23.2-0.9
	c-3.7-7.5,17.8-7.4,21.6-8.3c7.5-1.8,15.2-3.2,22.5-5.5C1464.1,870.2,1474,865.1,1478.7,870z"/>
<path opacity="0.1" fill="#29110D" d="M1515.9,875.4c-1.9,0.4-3.9,0.8-5.8,1.2c0,0-0.1,0-0.1,0c-0.1-0.2-0.2-0.3-0.3-0.5
	c-0.1-0.2-0.2-0.4-0.3-0.6c-0.5-1.1-0.9-2-1.3-3c-2.3-5.3-4.2-9.5-4.9-16.4c0.7-0.3,1.4-0.5,2.1-0.7c0.7-0.2,1.3-0.5,2-0.7
	c0.3-0.1,0.7-0.2,1-0.4c0.1,0,0.2-0.1,0.3-0.1c0,0.3,0,0.6,0.1,0.9c0.6,7.4,2.7,11.1,5.8,18.2
	C1514.8,874.2,1515.3,874.9,1515.9,875.4z"/>
<path opacity="0.1" fill="#29110D" d="M1618.5,757.6c-0.5,12.3-7.1,28.7-15.5,45.2c-0.6,4.8-0.9,9.5-1.4,14.3
	c-8.6,15.4-18,29.8-24.9,40.5l-1.6,2.5c-1.4,0.1-2.8,0.2-4.1,0.2c-0.9,0-1.8,0.1-2.7,0.1c-4.3,6.4-4.9,4.5-26.2,11.7
	c-13.2,4.5-21.4,8.5-26.3,3.3c-0.5-0.6-1-1.2-1.5-2c-3-7-5.2-10.7-5.8-18.2c0-0.3,0-0.6-0.1-0.9c-0.3-5.3,21.4-8.9,27-11.1
	c5.8-2.2,15.6-18.5,24.2-35.1c9.5-11.9,20.1-25,23.6-32.3c1-2-2.3-3.2-5.5-4.1c3-5.2,19.5-30.3,23.5-31.5c3.8-1.2,7-0.5,9.6,1.3
	C1616.1,745,1618.7,752.5,1618.5,757.6z"/>
<path fill="#D9E6EE" d="M1618.5,757.6c-0.5,12.3-7.1,28.7-15.5,45.2c-11,21.4-25.1,42.8-33,55.1c-0.6,0.9-1.1,1.8-1.6,2.5
	c-4.3,6.4-4.9,4.5-26.2,11.7c-13.2,4.5-21.4,8.5-26.3,3.3c-0.5-0.6-1-1.2-1.5-2c-3-7-5.2-10.7-5.8-18.2c0-0.3,0-0.6-0.1-0.9
	c-0.3-5.3,21.4-8.9,27-11.1c5.8-2.2,15.6-18.5,24.2-35.1c8.4-15.9,15.8-32.1,17.9-35.9c0.1-0.1,0.2-0.3,0.3-0.6
	c3-5.2,19.5-30.3,23.5-31.5c3.8-1.2,7-0.5,9.6,1.3C1616.1,745,1618.7,752.5,1618.5,757.6z"/>
<path opacity="0.1" fill="#29110D" d="M1636,647.9c-4.1,13.5-11.3,25.2-20.7,34.5c-1.8,1.6-3.6,3.1-5.5,4.5
	c-0.7,0.6-1.5,1.1-2.2,1.6c0.3-1.8,0.6-3.6,0.9-5.4c0.9-5.2,1.9-10.5,2.7-15.8c4-24.4,6.5-58.4-14.9-78.8c0,0.2-0.1,0.4-0.1,0.6
	c-0.7,2.6-2.8,4.5-6.2,5.5c-1.2,0.3-2.4,0.4-3.7,0.3c-6.9-0.7-13.4-8.5-16.7-13.1c-0.5-0.7-0.9-1.3-1.3-1.9c-0.6-0.9-1.4-2-1.9-2.6
	c-0.4,0.1-1.2,0.4-2.7,1l-0.3,0.1c-4.9,2.2-11.6,5.3-18.3,4.7c-0.9-0.1-1.7-0.2-2.5-0.4c-2.3-0.6-7.7-2-8.2-6.9
	c-0.2-2.2,0.5-3.9,1.8-5.2c-4.6,0.9-9.4,2.6-13.8,5.2c-26.1,14.9-35.5,45.5-40.8,70.5c-0.7,3.1-0.9,7-1.4,10.1
	c-8.9-18-11.5-40.5-5.1-61.2c4.1-13.1,11.2-24.5,20.3-33.6c21.4-19.4,52.5-27.4,82.7-18.3C1623.4,556.9,1649.3,603.7,1636,647.9z"/>
<g>
	<path fill="#FD616C" d="M1672.7,767.8c-0.3,5.8-2.6,11.9-8.4,15.1c-8.8,4.8-12.4-2.6-12.7-10.2c-0.1-2.6,0.5-14.7-3.3-13.9
		c-1.6,0.3-1.3,12.3-1.6,15.3c-0.4,5.3-0.7,8.7-4.4,11.3c-6.3,4.4-18.2,0.9-24.7,0c-10.7-1.6-8.1-7.1-7.3-15.5
		c1.7-18.2,0.7-36.3,0.9-54.8c0.2-16.1,2.3-31,4.3-47.4c4-32.4,7.1-66.8-20.8-90c-3-2.5-9-6.2-8.2,0.5c0.4,3.1,8.4,6.9,1.9,8.6
		c-5.1,1.3-11.5-7.1-13.8-10.4c-4.5-6.3-5.4-8.3-12.9-5.5c-4.9,1.8-11.9,5.1-17.1,3.7c-8.3-2.3-1.3-4.4,1.8-6.4
		c3.9-2.5,4.5-5.7-0.9-6.1c-8.3-0.6-18.1,1.7-25.3,6.1c-26.4,16.2-37.5,42.4-42.3,71.7c-2.8,16.9-3.7,32.9-3.7,50
		c0,8.9,0.8,17.3,1.7,26.6c0.7,6.9,5.6,16.9-1.3,22.7c-6.9,5.8-25.4,8.3-25.8,5c-0.6-5.5-0.1-14.1-3.9-8.7c-0.3,0.4-0.4,3.7-0.8,5.4
		c-0.4,1.6-1.8,5.2-4.3,5.2c-2.7,0-1.8-14-1.6-17.9c0.5-9,0.1-16.6,0.7-24.9c1.5-19.9,2.1-40.9,4.9-67.1c3.8-35.1,7.9-58.3,33-85.9
		c19.2-21.2,48.7-37.7,92.9-37.7c9.2,0,7.4,3.4,11.5,4.7c4.1,1.3,10.7-0.6,15.2-0.3c12.3,1,27.7,6.7,37,13.7
		c18.5,13.9,29.5,30.1,37.9,51.4c8.1,20.4,7.8,47.1,7.1,66.8C1677.7,675.6,1673.5,752.8,1672.7,767.8z"/>
</g>
<path fill="#E2C7B5" d="M1475.2,618.7c-1.1,1.7-0.2,9.3-1.9,10.3c-6.1,3.6-7.7,2.1-15.7-3c-0.2-0.2-0.5-0.3-0.8-0.5
	c0,0-0.1-0.1-0.2-0.1c0,0,0,0-0.1,0c-1.5-1-2.8-2.2-4.1-3.4c-0.2-0.2-0.3-0.3-0.5-0.5c-6.7-7-8.8-16.4-4.4-22.9
	c2.1-3.1,5.5-5.1,9.4-5.9c1.2-0.2,2.5-0.4,3.8-0.4c0.7,0,1.3,0,2,0.1c1.2,0.1,2.4,0.3,3.7,0.6c3.2,0.8,6.4,2.2,9.4,4.2
	c5.1,3.5,5,7.3,6.7,12.1C1484.5,614.2,1477.8,614.7,1475.2,618.7z"/>
<path fill="#E2C7B5" d="M1668.6,667.1c0,9.4-10.2,17.1-22.7,17c-2.1,0-4.1-0.2-5.9-0.6c-0.4-0.1-0.8-0.2-1.2-0.3
	c-1.5-0.4-2.9-0.8-4.2-1.4c-0.3-0.1-0.7-0.3-1-0.5c-6.3-3-10.4-8.4-10.4-14.4c0-8.8,8.9-16,20.3-17c0.5,0,0.9-0.1,1.4-0.1
	c0.4,0,0.8,0,1.1,0c1,0,2,0.1,3,0.2c0.5,0,0.9,0.1,1.4,0.2C1660.8,651.8,1668.6,658.7,1668.6,667.1z"/>
<path opacity="0.1" fill="#29110D" d="M1463,592.4c-1,2.9-1.8,5.9-2.6,9.1c-0.1,0.3-0.2,0.7-0.2,1c-1.8,8-2.6,15.8-2.7,23.2
	c-0.3-0.1-0.5-0.3-0.8-0.4c0,0,0,0-0.1,0c-1.5-1-2.8-2.2-4.1-3.4c-0.2-0.2-0.3-0.3-0.5-0.5c0.3-6.8,1.2-13.5,2.7-20.1
	c0.1-0.4,0.2-0.7,0.2-1.1c0.6-2.5,1.3-5.1,2.1-7.5c1.2-0.2,2.5-0.4,3.8-0.4C1461.6,592.3,1462.3,592.3,1463,592.4z"/>
<path fill="#FD616C" d="M1479.7,628c-4.7,31.9,0.6,58.6,5.8,75.8c0.6,2-2,3.3-3.2,1.6c-8.9-12.6-22.7-36.2-25.5-65.5
	c-0.4-3.8-0.5-7.6-0.5-11.6c0.1-7.5,0.9-15.2,2.7-23.2c0.1-0.3,0.2-0.7,0.2-1c0.8-3.3,1.7-6.4,2.7-9.5c6.7-20.1,18-34.8,26.3-43.8
	c0.6-0.6,1.5-0.8,2.3-0.3c4.5,2.6,9,5.2,13.6,7.8c0.9,0.5,1.2,1.7,0.6,2.6c-6.8,10.8-15.6,27.4-21.2,49c-1.4,5.3-2.6,10.8-3.5,16.7
	C1479.9,626.9,1479.8,627.4,1479.7,628z"/>
<path opacity="0.1" fill="#29110D" d="M1648.9,650.1c-1.2,7.6-3.1,15.1-5.8,22.4c-1.3,3.7-2.8,7.3-4.4,10.7
	c-1.5-0.4-2.9-0.8-4.2-1.4c-0.3-0.1-0.7-0.3-1-0.5c1.6-3.5,3.1-7.1,4.5-10.8c2.3-6.4,4.1-13.3,5.4-20.5c0.5,0,0.9-0.1,1.4-0.1
	c0.4,0,0.8,0,1.1,0C1647,649.9,1648,650,1648.9,650.1z"/>
<path fill="#FD616C" d="M1643.6,649.9c-1.2,7.5-3.1,14.5-5.6,21.1c-1.4,3.8-3,7.4-4.7,10.8c-10.7,21.9-26.6,37.4-36.8,46
	c-1.6,1.3-3.8-0.6-2.7-2.4c9.6-15.5,21.8-40.6,25.2-73.4c3.1-30.1-2.3-54.7-7-69.8c-0.3-1,0.3-2,1.3-2.3c5-1.4,10.1-2.7,15.1-4
	c0.8-0.2,1.7,0.2,2.1,0.9c6.6,12.4,15,33.2,14.4,59c0,0.4,0,0.7,0,1.1C1644.7,641.3,1644.3,645.7,1643.6,649.9z"/>
<path opacity="0.1" fill="#29110D" d="M1493.2,833c-0.4-2.4-0.9-4.7-1.5-7c-0.6-2.3-1.3-4.6-2.1-6.9c-0.4-1.1-0.9-2.2-1.4-3.3
	c-1.3,2.3-2.7,4.7-4.2,7c-1.7,2.7-3.4,5.4-5.1,8.1c2.9-7.6,3.2-7.5,4.2-19.5c0.5-5.8-0.6-11.1-0.6-15c0-0.6,0.9-0.8,1.1-0.2
	c0.7,2.5,2,5.8,3.6,9.9c6.1,16.2,21.8,13,28.2,14.7C1518.9,821.8,1505,827.9,1493.2,833z"/>
<path opacity="0.1" fill="#29110D" d="M1518.9,1191.7L1518.9,1191.7c-4.9-31-5.9-51.9-5.9-67.4c0,22-2.3,51.5-16.9,105.1
	c-0.1-0.8,0-41.4,5-75.2c5.1-34.1,8.3-104.6,8.3-104.6L1518.9,1191.7z"/>
</svg>
