<svg width="132" height="54" viewBox="0 0 132 54" fill="none" xmlns="http://www.w3.org/2000/svg">
<path d="M30.0475 19.1653L23.8983 38.0839H19.2261L15.0908 25.2733L10.8213 38.0839H6.1759L-9.15527e-05 19.1653H4.51106L8.75372 32.4624L13.1843 19.1653H17.2122L21.5085 32.5705L25.8854 19.1653H30.0475Z" fill="#FFD22E"/>
<path d="M45.2585 30.8681C45.2585 30.9221 45.2316 31.3005 45.1778 32.0032H34.2491C34.4458 32.9041 34.9114 33.6158 35.6453 34.1383C36.3792 34.6608 37.2923 34.922 38.3843 34.922C39.1362 34.922 39.7985 34.8139 40.3714 34.5977C40.962 34.3635 41.5079 34.0031 42.0093 33.5167L44.238 35.949C42.8776 37.5166 40.8905 38.3004 38.2767 38.3004C36.6477 38.3004 35.2066 37.985 33.9536 37.3544C32.7004 36.7058 31.7337 35.8139 31.0536 34.6788C30.3733 33.5437 30.0332 32.2554 30.0332 30.814C30.0332 29.3906 30.3644 28.1113 31.0268 26.9762C31.7069 25.8231 32.6289 24.9312 33.7926 24.3006C34.9741 23.652 36.2897 23.3276 37.7397 23.3276C39.1539 23.3276 40.434 23.6339 41.5797 24.2465C42.7254 24.8591 43.6203 25.742 44.2649 26.8952C44.9273 28.0303 45.2585 29.3546 45.2585 30.8681ZM37.7665 26.5168C36.8179 26.5168 36.0211 26.787 35.3768 27.3276C34.7324 27.8681 34.3386 28.6068 34.1953 29.5438H41.3112C41.1679 28.6248 40.7741 27.8951 40.1297 27.3546C39.4851 26.796 38.6974 26.5168 37.7665 26.5168Z" fill="#FFD22E"/>
<path d="M56.5871 23.3277C57.9299 23.3277 59.1471 23.643 60.239 24.2737C61.349 24.8863 62.2172 25.7601 62.8439 26.8953C63.4702 28.0123 63.7836 29.3186 63.7836 30.8141C63.7836 32.3096 63.4702 33.6249 62.8439 34.76C62.2172 35.8771 61.349 36.7509 60.239 37.3815C59.1471 37.9941 57.9299 38.3005 56.5871 38.3005C54.6 38.3005 53.0874 37.6699 52.0492 36.4086V38.0842H48.0482V18.0305H52.2371V25.0845C53.2933 23.9133 54.7433 23.3277 56.5871 23.3277ZM55.8621 34.8411C56.9363 34.8411 57.8135 34.4807 58.4936 33.76C59.192 33.0213 59.5409 32.0393 59.5409 30.8141C59.5409 29.5889 59.192 28.6159 58.4936 27.8952C57.8135 27.1565 56.9363 26.7871 55.8621 26.7871C54.7882 26.7871 53.9019 27.1565 53.2038 27.8952C52.5237 28.6159 52.1834 29.5889 52.1834 30.8141C52.1834 32.0393 52.5237 33.0213 53.2038 33.76C53.9019 34.4807 54.7882 34.8411 55.8621 34.8411Z" fill="#FFD22E"/>
<path d="M84.121 19.1653V38.0839H79.7707V30.3273H71.2317V38.0839H66.8817V19.1653H71.2317V26.6246H79.7707V19.1653H84.121Z" fill="#FFD22E"/>
<path d="M102.42 30.8681C102.42 30.9221 102.393 31.3005 102.34 32.0032H91.4108C91.6079 32.9041 92.0732 33.6158 92.8074 34.1383C93.5412 34.6608 94.4541 34.922 95.5461 34.922C96.2979 34.922 96.9603 34.8139 97.5332 34.5977C98.124 34.3635 98.67 34.0031 99.1713 33.5167L101.4 35.949C100.039 37.5166 98.0525 38.3004 95.4388 38.3004C93.8098 38.3004 92.3686 37.985 91.1157 37.3544C89.8625 36.7058 88.8958 35.8139 88.2154 34.6788C87.5353 33.5437 87.1953 32.2554 87.1953 30.814C87.1953 29.3906 87.5264 28.1113 88.1888 26.9762C88.8689 25.8231 89.791 24.9312 90.9544 24.3006C92.1358 23.652 93.4517 23.3276 94.9017 23.3276C96.3159 23.3276 97.5958 23.6339 98.7415 24.2465C99.8872 24.8591 100.782 25.742 101.427 26.8952C102.089 28.0303 102.42 29.3546 102.42 30.8681ZM94.9286 26.5168C93.9799 26.5168 93.1832 26.787 92.5388 27.3276C91.8942 27.8681 91.5004 28.6068 91.3573 29.5438H98.4729C98.3299 28.6248 97.9361 27.8951 97.2915 27.3546C96.6471 26.796 95.8595 26.5168 94.9286 26.5168Z" fill="#FFD22E"/>
<path d="M109.214 25.4627C109.715 24.76 110.386 24.2285 111.228 23.8682C112.087 23.5078 113.072 23.3276 114.182 23.3276V27.2195C113.716 27.1834 113.403 27.1654 113.242 27.1654C112.042 27.1654 111.103 27.5077 110.423 28.1924C109.742 28.8591 109.402 29.8681 109.402 31.2194V38.0841H105.213V23.5439H109.214V25.4627Z" fill="#FFD22E"/>
<path d="M123.412 38.3004C121.89 38.3004 120.521 37.985 119.304 37.3544C118.104 36.7058 117.164 35.8139 116.484 34.6788C115.804 33.5437 115.463 32.2554 115.463 30.814C115.463 29.3726 115.804 28.0843 116.484 26.9492C117.164 25.8141 118.104 24.9312 119.304 24.3006C120.521 23.652 121.89 23.3276 123.412 23.3276C124.933 23.3276 126.294 23.652 127.493 24.3006C128.693 24.9312 129.633 25.8141 130.313 26.9492C130.993 28.0843 131.333 29.3726 131.333 30.814C131.333 32.2554 130.993 33.5437 130.313 34.6788C129.633 35.8139 128.693 36.7058 127.493 37.3544C126.294 37.985 124.933 38.3004 123.412 38.3004ZM123.412 34.841C124.486 34.841 125.363 34.4806 126.043 33.7599C126.741 33.0212 127.091 32.0392 127.091 30.814C127.091 29.5888 126.741 28.6158 126.043 27.8951C125.363 27.1564 124.486 26.787 123.412 26.787C122.338 26.787 121.452 27.1564 120.754 27.8951C120.055 28.6158 119.706 29.5888 119.706 30.814C119.706 32.0392 120.055 33.0212 120.754 33.7599C121.452 34.4806 122.338 34.841 123.412 34.841Z" fill="#FFD22E"/>
<path d="M84.8459 53.2669C84.0376 53.2669 83.2551 53.1433 82.4981 52.8962C81.7516 52.639 81.1632 52.3094 80.7336 51.9079L81.3013 50.7032C81.7105 51.0739 82.2322 51.3776 82.8664 51.6145C83.511 51.8411 84.1707 51.9544 84.8459 51.9544C85.7357 51.9544 86.4008 51.8048 86.8406 51.5063C87.2804 51.1975 87.5005 50.7908 87.5005 50.2863C87.5005 49.9158 87.3777 49.617 87.1322 49.3907C86.8968 49.1538 86.6002 48.9737 86.2422 48.8501C85.8943 48.7266 85.3984 48.5876 84.7537 48.4332C83.9457 48.2374 83.2911 48.0419 82.7898 47.8461C82.2986 47.6506 81.8742 47.3521 81.5161 46.9506C81.1683 46.5387 80.9946 45.9879 80.9946 45.2979C80.9946 44.7214 81.1427 44.2014 81.4395 43.7382C81.7465 43.2749 82.2067 42.9042 82.8204 42.6262C83.4341 42.3482 84.1962 42.2092 85.1067 42.2092C85.7408 42.2092 86.365 42.2916 86.9787 42.4563C87.5925 42.6211 88.1193 42.8579 88.5591 43.1668L88.0527 44.4023C87.6027 44.114 87.122 43.8978 86.6105 43.7536C86.0989 43.5992 85.5978 43.522 85.1067 43.522C84.2373 43.522 83.5825 43.6815 83.1427 44.0007C82.7132 44.3198 82.4981 44.7316 82.4981 45.2362C82.4981 45.6069 82.6209 45.9106 82.8664 46.1475C83.1121 46.3738 83.4137 46.5542 83.7718 46.688C84.14 46.8116 84.6363 46.9454 85.2602 47.0896C86.0683 47.2851 86.7177 47.4808 87.2088 47.6763C87.7 47.8718 88.1193 48.1706 88.4672 48.5722C88.825 48.9737 89.004 49.5143 89.004 50.1938C89.004 50.76 88.8508 51.28 88.5438 51.7535C88.2368 52.2167 87.7715 52.5874 87.1476 52.8654C86.5234 53.1331 85.7562 53.2669 84.8459 53.2669Z" fill="#404040"/>
<path d="M94.5747 53.2365C93.7459 53.2365 93.0045 53.0565 92.3497 52.696C91.7053 52.3356 91.1989 51.8415 90.8306 51.2134C90.4623 50.575 90.2782 49.8543 90.2782 49.0512C90.2782 48.2481 90.4623 47.5327 90.8306 46.9045C91.1989 46.2664 91.7053 45.7721 92.3497 45.4219C93.0045 45.0617 93.7459 44.8813 94.5747 44.8813C95.3113 44.8813 95.9658 45.0309 96.5387 45.3294C97.1217 45.6279 97.5717 46.0603 97.8889 46.6265L96.7688 47.3526C96.5131 46.9613 96.1959 46.6679 95.8174 46.4721C95.4389 46.2766 95.0196 46.1787 94.5594 46.1787C94.0274 46.1787 93.5465 46.2972 93.1169 46.5341C92.6976 46.7707 92.365 47.1106 92.1196 47.5532C91.8844 47.9856 91.7666 48.485 91.7666 49.0512C91.7666 49.6277 91.8844 50.1374 92.1196 50.5801C92.365 51.0127 92.6976 51.3472 93.1169 51.5841C93.5465 51.821 94.0274 51.9391 94.5594 51.9391C95.0196 51.9391 95.4389 51.8415 95.8174 51.6458C96.1959 51.4503 96.5131 51.1569 96.7688 50.7656L97.8889 51.4759C97.5717 52.0422 97.1217 52.4797 96.5387 52.7888C95.9658 53.0873 95.3113 53.2365 94.5747 53.2365Z" fill="#404040"/>
<path d="M104.034 44.8803C105.068 44.8803 105.886 45.1843 106.49 45.7916C107.103 46.3889 107.41 47.2691 107.41 48.4326V53.1428H105.937V48.6024C105.937 47.8096 105.748 47.2126 105.369 46.811C104.991 46.4095 104.449 46.2086 103.743 46.2086C102.945 46.2086 102.316 46.4454 101.856 46.9189C101.395 47.3824 101.165 48.0516 101.165 48.9266V53.1428H99.692V41.6836H101.165V46.1161C101.472 45.7248 101.871 45.4209 102.362 45.2048C102.863 44.9885 103.421 44.8803 104.034 44.8803Z" fill="#404040"/>
<path d="M113.665 53.2365C112.857 53.2365 112.13 53.0565 111.486 52.696C110.841 52.3356 110.335 51.8415 109.967 51.2134C109.609 50.575 109.43 49.8543 109.43 49.0512C109.43 48.2481 109.609 47.5327 109.967 46.9045C110.335 46.2664 110.841 45.7721 111.486 45.4219C112.13 45.0617 112.857 44.8813 113.665 44.8813C114.473 44.8813 115.194 45.0617 115.828 45.4219C116.473 45.7721 116.974 46.2664 117.332 46.9045C117.7 47.5327 117.884 48.2481 117.884 49.0512C117.884 49.8543 117.7 50.575 117.332 51.2134C116.974 51.8415 116.473 52.3356 115.828 52.696C115.194 53.0565 114.473 53.2365 113.665 53.2365ZM113.665 51.9391C114.186 51.9391 114.652 51.821 115.061 51.5841C115.481 51.337 115.808 50.9971 116.043 50.5647C116.278 50.122 116.396 49.6175 116.396 49.0512C116.396 48.485 116.278 47.9856 116.043 47.5532C115.808 47.1106 115.481 46.7707 115.061 46.5341C114.652 46.2972 114.186 46.1787 113.665 46.1787C113.143 46.1787 112.672 46.2972 112.253 46.5341C111.844 46.7707 111.517 47.1106 111.271 47.5532C111.036 47.9856 110.918 48.485 110.918 49.0512C110.918 49.6175 111.036 50.122 111.271 50.5647C111.517 50.9971 111.844 51.337 112.253 51.5841C112.672 51.821 113.143 51.9391 113.665 51.9391Z" fill="#404040"/>
<path d="M123.401 53.2365C122.593 53.2365 121.867 53.0565 121.222 52.696C120.578 52.3356 120.071 51.8415 119.703 51.2134C119.345 50.575 119.166 49.8543 119.166 49.0512C119.166 48.2481 119.345 47.5327 119.703 46.9045C120.071 46.2664 120.578 45.7721 121.222 45.4219C121.867 45.0617 122.593 44.8813 123.401 44.8813C124.209 44.8813 124.931 45.0617 125.565 45.4219C126.209 45.7721 126.71 46.2664 127.068 46.9045C127.437 47.5327 127.621 48.2481 127.621 49.0512C127.621 49.8543 127.437 50.575 127.068 51.2134C126.71 51.8415 126.209 52.3356 125.565 52.696C124.931 53.0565 124.209 53.2365 123.401 53.2365ZM123.401 51.9391C123.923 51.9391 124.388 51.821 124.797 51.5841C125.217 51.337 125.544 50.9971 125.779 50.5647C126.015 50.122 126.132 49.6175 126.132 49.0512C126.132 48.485 126.015 47.9856 125.779 47.5532C125.544 47.1106 125.217 46.7707 124.797 46.5341C124.388 46.2972 123.923 46.1787 123.401 46.1787C122.879 46.1787 122.409 46.2972 121.989 46.5341C121.58 46.7707 121.253 47.1106 121.007 47.5532C120.772 47.9856 120.654 48.485 120.654 49.0512C120.654 49.6175 120.772 50.122 121.007 50.5647C121.253 50.9971 121.58 51.337 121.989 51.5841C122.409 51.821 122.879 51.9391 123.401 51.9391Z" fill="#404040"/>
<path d="M129.661 41.6836H131.135V53.1428H129.661V41.6836Z" fill="#404040"/>
<path d="M11.0901 0.182571H7.40213V8.70256H9.3739V6.35348H11.0901C13.3661 6.35348 14.7902 5.17285 14.7902 3.27411C14.7902 1.3632 13.3661 0.182571 11.0901 0.182571ZM10.9805 4.74685H9.3739V1.7892H10.9805C12.1855 1.7892 12.7941 2.33691 12.7941 3.27411C12.7941 4.19914 12.1855 4.74685 10.9805 4.74685Z" fill="#404040"/>
<path d="M22.1869 8.70256H24.256L20.4464 0.182571H18.4989L14.7015 8.70256H16.7219L17.4765 6.87685H21.4323L22.1869 8.70256ZM18.1095 5.37977L19.4605 2.11783L20.8115 5.37977H18.1095Z" fill="#404040"/>
<path d="M30.2301 4.26C30.9847 3.93137 31.4594 3.27411 31.4594 2.44646C31.4594 0.900685 29.7554 0 27.7836 0C26.8099 0 25.7875 0.219086 24.8625 0.693771L25.4589 2.22737C26.1892 1.81354 27.029 1.6188 27.7471 1.6188C28.7087 1.6188 29.4633 1.98394 29.4633 2.67771C29.4633 3.2376 29.0008 3.59057 28.1975 3.59057H26.2622V5.07548H28.3435C29.232 5.07548 29.8163 5.39194 29.8163 6.03702C29.8163 6.82817 28.9034 7.24199 27.7836 7.24199C26.956 7.24199 26.0066 7.02291 25.2276 6.54822L24.6191 7.96011C25.678 8.56868 26.883 8.84862 28.0149 8.84862C30.0597 8.84862 31.8124 7.92359 31.8124 6.31697C31.8124 5.35542 31.216 4.6008 30.2301 4.26Z" fill="#404040"/>
<path d="M37.0613 0.182571H33.3734V8.70256H35.3451V6.35348H37.0613C39.3374 6.35348 40.7614 5.17285 40.7614 3.27411C40.7614 1.3632 39.3374 0.182571 37.0613 0.182571ZM36.9518 4.74685H35.3451V1.7892H36.9518C38.1567 1.7892 38.7653 2.33691 38.7653 3.27411C38.7653 4.19914 38.1567 4.74685 36.9518 4.74685Z" fill="#404040"/>
<path d="M48.1581 8.70256H50.2273L46.4176 0.182571H44.4702L40.6727 8.70256H42.6932L43.4478 6.87685H47.4035L48.1581 8.70256ZM44.0807 5.37977L45.4317 2.11783L46.7828 5.37977H44.0807Z" fill="#404040"/>
<path d="M51.3571 8.70256H55.398C57.5889 8.70256 58.8425 7.71668 58.8425 6.01268C58.8425 4.38171 57.7349 3.50537 55.678 3.50537H53.3167V1.75268H58.234V0.182571H51.3571V8.70256ZM53.3167 7.24199V4.95377H55.2885C56.323 4.95377 56.8464 5.31891 56.8464 6.07354C56.8464 6.84034 56.2987 7.24199 55.2885 7.24199H53.3167Z" fill="#404040"/>
<path d="M64.4083 8.84862C67.086 8.84862 69.0699 6.98639 69.0699 4.44257C69.0699 1.89874 67.086 0.0365145 64.4083 0.0365145C61.7184 0.0365145 59.7466 1.91091 59.7466 4.44257C59.7466 6.97422 61.7184 8.84862 64.4083 8.84862ZM64.4083 7.16897C62.8869 7.16897 61.7428 6.06137 61.7428 4.44257C61.7428 2.82377 62.8869 1.71617 64.4083 1.71617C65.9297 1.71617 67.0738 2.82377 67.0738 4.44257C67.0738 6.06137 65.9297 7.16897 64.4083 7.16897Z" fill="#404040"/>
<path d="M76.9818 0.182571H69.5937V1.7892H72.3079V8.70256H74.2554V1.7892H76.9818V0.182571Z" fill="#404040"/>
<path d="M84.3158 8.70256H86.3849L82.5753 0.182571H80.6279L76.8304 8.70256H78.8508L79.6055 6.87685H83.5612L84.3158 8.70256ZM80.2384 5.37977L81.5894 2.11783L82.9404 5.37977H80.2384Z" fill="#404040"/>
<path d="M93.3571 0.182571V3.54188H89.4866V0.182571H87.5148V8.70256H89.4866V5.20937H93.3571V8.70256H95.3288V0.182571H93.3571Z" fill="#404040"/>
<path d="M101.529 8.84862C104.206 8.84862 106.19 6.98639 106.19 4.44257C106.19 1.89874 104.206 0.0365145 101.529 0.0365145C98.8389 0.0365145 96.8671 1.91091 96.8671 4.44257C96.8671 6.97422 98.8389 8.84862 101.529 8.84862ZM101.529 7.16897C100.007 7.16897 98.8632 6.06137 98.8632 4.44257C98.8632 2.82377 100.007 1.71617 101.529 1.71617C103.05 1.71617 104.194 2.82377 104.194 4.44257C104.194 6.06137 103.05 7.16897 101.529 7.16897Z" fill="#404040"/>
<path d="M117.059 4.26C117.814 3.89485 118.264 3.24977 118.264 2.3856C118.264 0.973713 117.096 0.182571 115.124 0.182571H111.156V8.70256H115.355C117.51 8.70256 118.666 7.78971 118.666 6.30479C118.666 5.27022 118.094 4.56428 117.059 4.26ZM113.116 1.64314H114.954C115.806 1.64314 116.256 2.00828 116.256 2.67771C116.256 3.35931 115.806 3.71228 114.954 3.71228H113.116V1.64314ZM115.282 7.24199H113.116V5.08765H115.282C116.195 5.08765 116.67 5.42845 116.67 6.14657C116.67 6.88902 116.195 7.24199 115.282 7.24199Z" fill="#404040"/>
</svg>
